<?xml version="1.0" encoding="UTF-8"?>
<svg version="1.1" xmlns="http://www.w3.org/2000/svg" width="1747" height="649">
<path d="M0 0 C576.51 0 1153.02 0 1747 0 C1747 214.17 1747 428.34 1747 649 C1170.49 649 593.98 649 0 649 C0 434.83 0 220.66 0 0 Z " fill="#B20000" transform="translate(0,0)"/>
<path d="M0 0 C138.52745776 0 138.52745776 0 169.375 30.0625 C173.31358045 34.15159945 176.83868739 38.28707202 180 43 C180.62519531 43.8971875 181.25039063 44.794375 181.89453125 45.71875 C186.09894029 52.08565623 189.20578957 58.43350448 191.875 65.5625 C192.16109131 66.31700439 192.44718262 67.07150879 192.74194336 67.84887695 C196.59502504 78.6581079 197.33071294 89.46453195 197.26074219 100.86303711 C197.25002963 102.93177708 197.26069942 104.99964565 197.2734375 107.06835938 C197.30601294 135.31000837 186.57343058 159.74617568 167.04296875 180.078125 C125.00349683 221.77334969 49.64557811 209 0 209 C0 140.03 0 71.06 0 0 Z " fill="#FEFEFE" transform="translate(604,202)"/>
<path d="M0 0 C5.30791507 4.78640737 10.14843302 10.02074155 14.79272461 15.44750977 C15.31253906 16.02984375 15.83235352 16.61217773 16.36791992 17.2121582 C26.00762462 28.95258514 29.21317929 46.82965269 33.60522461 61.07250977 C34.24956897 63.14946645 34.8943563 65.22628576 35.53955078 67.30297852 C36.91938239 71.74715394 38.29637617 76.19219458 39.67114258 80.63793945 C41.93684627 87.96412865 44.20993427 95.28801566 46.48413086 102.61157227 C48.81526187 110.11874506 51.14598833 117.62603973 53.47290039 125.13452148 C56.70627865 135.56655884 59.94163905 145.99778739 63.21850586 156.41625977 C63.4628688 157.19396729 63.70723175 157.9716748 63.95899963 158.77294922 C65.04086349 162.2151476 66.12547329 165.65642659 67.21582031 169.09594727 C67.75275513 170.80137695 67.75275513 170.80137695 68.30053711 172.54125977 C68.75710693 173.98275391 68.75710693 173.98275391 69.22290039 175.45336914 C69.85522461 177.69750977 69.85522461 177.69750977 69.85522461 179.69750977 C65.2743376 179.15858188 62.42420413 177.60370765 58.85522461 174.69750977 C57.37289168 172.1257737 56.53278791 169.43331954 55.66381836 166.60375977 C55.39674576 165.79636353 55.12967316 164.98896729 54.85450745 164.15710449 C54.28112888 162.41654016 53.71713216 160.67286261 53.16162109 158.92651367 C51.9851077 155.23135585 50.7606738 151.55264699 49.53945923 147.87207031 C48.91105901 145.97589243 48.28508375 144.07890929 47.66146851 142.18115234 C44.78152614 133.41868892 41.78373668 124.70183928 38.6802063 116.01611328 C37.87438709 113.75136575 37.08425781 111.48154659 36.29443359 109.21118164 C31.28969752 95.06887548 24.07975658 85.97712095 12.74584961 76.33032227 C11.12404875 74.92967607 9.57491697 73.44565341 8.04272461 71.94750977 C-1.23943438 65.39539754 -15.36524338 64.96942923 -26.37133789 63.12329102 C-28.32950356 62.79154617 -30.28762249 62.45952534 -32.24569702 62.12724304 C-36.33155501 61.43526838 -40.41808858 60.7474671 -44.50512695 60.0625 C-49.72597496 59.1870433 -54.94474833 58.29983897 -60.1630497 57.40934467 C-64.19948669 56.72210453 -68.23706576 56.04177473 -72.27500534 55.3634243 C-74.19938806 55.03916912 -76.12339036 54.71264726 -78.04698563 54.38375282 C-80.73941208 53.9243351 -83.43327109 53.47444575 -86.12768555 53.02685547 C-86.9102623 52.89130753 -87.69283905 52.75575958 -88.49913025 52.61610413 C-96.4943148 51.30873516 -104.93377439 50.3062892 -112.14477539 54.69750977 C-118.4917996 60.23048679 -121.71461448 66.25251365 -122.51977539 74.57250977 C-122.12730115 82.91258747 -119.26818903 90.88688347 -113.14477539 96.69750977 C-105.79374187 102.19232077 -97.64568343 104.09579141 -88.92211914 106.38500977 C-87.33246455 106.81301142 -85.74316042 107.24231663 -84.15419006 107.67285156 C-79.98235822 108.80012454 -75.80668035 109.91237764 -71.62976074 111.02062988 C-64.97099234 112.78989869 -58.31822296 114.58155053 -51.66571236 116.37417603 C-49.36807968 116.99096086 -47.0687501 117.60102117 -44.76902771 118.20996094 C-37.76321738 120.07581799 -30.79146025 122.03162621 -23.88525391 124.24047852 C-22.70584732 124.6158374 -21.52644073 124.99119629 -20.31129456 125.37792969 C-12.04798662 128.82148899 -9.54138212 134.87614031 -6.14477539 142.69750977 C-4.25673846 147.46332578 -2.55872442 152.28750453 -0.89477539 157.13500977 C-0.40077735 158.55775152 0.09362214 159.98035394 0.58837891 161.40283203 C1.70410819 164.61877286 2.8126881 167.83708721 3.91723633 171.05688477 C5.33078539 175.17664057 6.75326297 179.29321636 8.17993164 183.40844727 C10.26993695 189.43871924 12.34910871 195.47263584 14.42126465 201.50906372 C15.2522557 203.92641271 16.08599714 206.34281798 16.92248535 208.75827026 C18.10294334 212.17124818 19.27156847 215.58805723 20.43725586 219.00610352 C20.79807755 220.04210693 21.15889923 221.07811035 21.53065491 222.14550781 C21.85279465 223.09780273 22.17493439 224.05009766 22.50683594 225.03125 C22.79263016 225.86357651 23.07842438 226.69590302 23.37287903 227.55345154 C23.85522461 229.69750977 23.85522461 229.69750977 22.85522461 232.69750977 C15.57845729 233.55766055 8.30096808 234.41149084 1.02294922 235.26098633 C-1.45150437 235.55055521 -3.92579078 235.84155641 -6.39990234 236.1340332 C-9.96156238 236.55482004 -13.52379704 236.97040751 -17.08618164 237.38500977 C-18.18748917 237.51625244 -19.28879669 237.64749512 -20.42347717 237.78271484 C-25.70227852 238.39211679 -30.83064149 238.85623934 -36.14477539 238.69750977 C-36.72743164 237.53477539 -37.31008789 236.37204102 -37.91040039 235.17407227 C-45.8159229 219.64268061 -54.83152123 205.00105864 -66.14477539 191.69750977 C-67.05689666 190.58998249 -67.96830169 189.48186511 -68.87915039 188.37329102 C-91.41208352 161.20624034 -120.63197061 144.56405807 -156.00219727 139.98608398 C-162.41548148 139.39716991 -168.83418046 139.33080625 -175.26977539 139.32250977 C-176.57414551 139.32065674 -177.87851563 139.31880371 -179.22241211 139.31689453 C-185.91407495 139.39546339 -192.23036732 139.83435683 -198.77319336 141.27319336 C-201.27669541 141.7211125 -203.60692444 141.76808404 -206.14477539 141.69750977 C-217.69208241 109.01817449 -217.23476148 73.01216983 -202.32543945 41.32421875 C-196.16866369 28.91531892 -188.83145548 17.64936468 -179.14477539 7.69750977 C-178.25145508 6.73071289 -177.35813477 5.76391602 -176.43774414 4.76782227 C-157.10255501 -15.81405565 -129.81190804 -28.19229536 -102.14477539 -32.30249023 C-101.27079102 -32.43397461 -100.39680664 -32.56545898 -99.49633789 -32.70092773 C-63.06721008 -37.43032327 -27.26228735 -23.61335363 0 0 Z " fill="#FEFEFE" transform="translate(415.144775390625,274.302490234375)"/>
<path d="M0 0 C14.59345957 11.16254689 22.33764139 28.49751718 24.9296875 46.30078125 C25.23304947 48.79327983 25.23304947 48.79327983 26.359375 50.8046875 C26.48271449 53.2555926 26.54778525 55.67682575 26.5625 58.12890625 C26.56820007 58.86736282 26.57390015 59.6058194 26.57977295 60.36665344 C26.58923722 61.93948941 26.59576258 63.51234534 26.59960938 65.08520508 C26.60915533 67.43804512 26.64009279 69.78994937 26.671875 72.14257812 C26.84204305 96.12090487 19.77998827 118.06270754 3.109375 135.6796875 C-13.28022428 151.24407619 -31.30132446 155.41304666 -53.13671875 155.046875 C-65.84095724 154.61622285 -74.60435309 150.07055646 -86.640625 144.8046875 C-86.640625 166.2546875 -86.640625 187.7046875 -86.640625 209.8046875 C-103.470625 209.8046875 -120.300625 209.8046875 -137.640625 209.8046875 C-137.640625 138.5246875 -137.640625 67.2446875 -137.640625 -6.1953125 C-120.810625 -6.1953125 -103.980625 -6.1953125 -86.640625 -6.1953125 C-86.640625 -1.2453125 -86.640625 3.7046875 -86.640625 8.8046875 C-85.37347656 7.98484375 -84.10632812 7.165 -82.80078125 6.3203125 C-81.10177163 5.23144445 -79.40254103 4.14292115 -77.703125 3.0546875 C-76.87232422 2.51585937 -76.04152344 1.97703125 -75.18554688 1.421875 C-52.17104086 -13.26442456 -23.21357372 -16.00225644 0 0 Z " fill="#FEFDFD" transform="translate(1267.640625,259.1953125)"/>
<path d="M0 0 C0.7381192 0.00215515 1.4762384 0.0043103 2.23672485 0.00653076 C48.93444904 0.22390188 92.18198047 16.08395689 128.5 45.3125 C127.22378278 49.14115165 125.8789133 49.61522461 122.5 51.75 C117.38064929 55.0660806 112.35229881 58.47415019 107.375 62 C106.30318481 62.758573 106.30318481 62.758573 105.2097168 63.5324707 C99.89075554 67.30666668 94.59837898 71.11716396 89.3125 74.9375 C88.56500488 75.47624756 87.81750977 76.01499512 87.04736328 76.57006836 C83.50081803 79.12887475 79.96814689 81.70255454 76.46484375 84.3203125 C75.83537842 84.7848584 75.20591309 85.2494043 74.55737305 85.72802734 C73.39460083 86.58655942 72.23793389 87.45345566 71.08911133 88.33056641 C67.60044091 90.88874428 64.8422157 92.1486428 60.5 92.3125 C58.1484375 91.5625 58.1484375 91.5625 55.875 90.3125 C55.00230469 89.84457031 54.12960937 89.37664062 53.23046875 88.89453125 C51.44437234 87.85966852 49.6749088 86.79540946 47.92578125 85.69921875 C17.92036387 67.07959455 -20.55335008 62.59164952 -54.69921875 70.125 C-80.1882422 76.26282505 -102.41919391 88.60964176 -121.09521484 106.94287109 C-122.37221832 108.1879162 -123.67878375 109.4024586 -124.98828125 110.61328125 C-141.37150137 126.09103843 -152.41854136 148.91844355 -158.5 170.3125 C-158.70044922 170.993125 -158.90089844 171.67375 -159.10742188 172.375 C-163.33688841 187.46240849 -162.76287614 202.75474926 -162.26489258 218.27099609 C-162.24598969 219.14997055 -162.22708679 220.02894501 -162.20761108 220.93455505 C-162.17175665 222.59634174 -162.11561088 224.25786174 -162.03555298 225.91810608 C-161.96466483 229.99395642 -162.25159725 232.54343586 -164.81787109 235.8059082 C-168.19597432 238.96292494 -169.9129915 239.21663775 -174.5 239.3125 C-177.4609273 239.2006382 -180.37183032 238.9195631 -183.3125 238.5625 C-184.07498047 238.48773438 -184.83746094 238.41296875 -185.62304688 238.3359375 C-187.83203125 238.078125 -187.83203125 238.078125 -191.5 237.3125 C-203.30126164 219.61060754 -197.10732871 180.29234612 -193.16015625 160.26171875 C-184.70037042 120.13742168 -166.09363998 84.76140032 -136.5 56.3125 C-135.64664063 55.45914063 -134.79328125 54.60578125 -133.9140625 53.7265625 C-108.45769519 28.27019519 -75.11946785 12.03341998 -40.25 4.0625 C-39.5904834 3.91127686 -38.9309668 3.76005371 -38.25146484 3.60424805 C-25.53227144 0.8778269 -12.96037228 -0.06870656 0 0 Z " fill="#FEFEFE" transform="translate(346.5,147.6875)"/>
<path d="M0 0 C16.83 0 33.66 0 51 0 C51.33 25.41 51.66 50.82 52 77 C56.95 73.7 61.9 70.4 67 67 C83.94075072 57.47082772 103.20149086 53.92261283 122.42578125 58.19140625 C134.98505512 62.13642854 145.39721493 69.77718378 151.7578125 81.40234375 C157.36915993 93.13676526 159.31852018 104.68370969 159.22705078 117.62182617 C159.22734283 118.72558594 159.22763489 119.8293457 159.22793579 120.96655273 C159.22655454 124.5754411 159.21105042 128.18411693 159.1953125 131.79296875 C159.19157809 134.31073392 159.18873314 136.82850055 159.18673706 139.3462677 C159.17990932 145.27102644 159.16418422 151.19571822 159.14403808 157.12044269 C159.11542524 165.72425903 159.10506153 174.32810139 159.09242249 182.93195343 C159.07308849 194.95469758 159.03474227 206.97724605 159 219 C142.17 219 125.34 219 108 219 C107.94392578 209.1 107.94392578 209.1 107.88671875 199 C107.85640043 194.78903766 107.82522732 190.57811563 107.79101562 186.3671875 C107.73693525 179.70086846 107.68581717 173.03462912 107.65356445 166.36816406 C107.62732733 160.98634369 107.58678466 155.60479498 107.53681374 150.22314453 C107.52028178 148.1821636 107.50868326 146.14113583 107.50238609 144.10009766 C108.17964575 123.45721974 108.17964575 123.45721974 101.3125 104.6875 C95.56759656 99.25429467 88.28697207 98.46740593 80.75 98.5625 C79.91952148 98.56862305 79.08904297 98.57474609 78.23339844 98.58105469 C71.32928213 98.75533335 65.26555436 99.99698282 59 103 C57.80882065 103.46468689 56.6176413 103.92937378 55.3903656 104.40814209 C53.0050378 105.79925513 52.15694984 106.48113233 51.34864998 109.15332794 C51.09361248 112.0338832 51.06924588 114.84360796 51.11352539 117.73535156 C51.10274963 118.82833557 51.09197388 119.92131958 51.08087158 121.04742432 C51.05344859 124.66250704 51.07537577 128.27553492 51.09765625 131.890625 C51.08827509 134.39598895 51.07581975 136.90134313 51.06040955 139.40667725 C51.031417 145.32826891 51.03344262 151.249336 51.05048412 157.17092681 C51.07299358 165.75811024 51.0327847 174.34503904 51.00020599 182.93215942 C50.96040581 194.95516049 50.98650334 206.97640835 51 219 C34.17 219 17.34 219 0 219 C0 146.73 0 74.46 0 0 Z " fill="#FEFEFE" transform="translate(1331,192)"/>
<path d="M0 0 C1.12148438 0.25652344 2.24296875 0.51304687 3.3984375 0.77734375 C20.07748268 5.06676707 33.9035073 12.81611231 43.47265625 27.40625 C55.44548003 47.73861571 54 67.15757082 54 91 C16.05 91 -21.9 91 -61 91 C-58.99460783 103.032353 -56.95265309 111.78332918 -47.26953125 119.50390625 C-35.82725271 127.04675079 -24.699571 128.3455545 -11.3125 128.3125 C-10.02666016 128.32861328 -8.74082031 128.34472656 -7.41601562 128.36132812 C11.83492239 128.37105573 28.62783518 121.61665992 45 112 C45.33 111.67 45.66 111.34 46 111 C47.98 111 49.96 111 52 111 C52 124.86 52 138.72 52 153 C24.5466893 162.15110357 24.5466893 162.15110357 10 164 C9.360625 164.0920874 8.72125 164.1841748 8.0625 164.27905273 C0.73343479 165.24389819 -6.61913891 165.20039474 -14 165.1875 C-15.03462372 165.18609512 -15.03462372 165.18609512 -16.09014893 165.18466187 C-44.60480939 165.10069059 -71.25099058 160.09364891 -92.5703125 139.51953125 C-97.3423016 134.44043394 -101.05598547 129.31007309 -104 123 C-104.43054688 122.09636719 -104.86109375 121.19273437 -105.3046875 120.26171875 C-110.87657645 107.81563545 -112.567064 95.36621869 -112.5 81.8125 C-112.49823761 81.13979065 -112.49647522 80.4670813 -112.49465942 79.77398682 C-112.36052689 56.7066042 -105.70766359 38.2516185 -89.5390625 21.44140625 C-66.42889272 -0.82161654 -30.7483712 -7.09889836 0 0 Z " fill="#FEFDFD" transform="translate(941,250)"/>
<path d="M0 0 C16.83 0 33.66 0 51 0 C51 72.27 51 144.54 51 219 C34.17 219 17.34 219 0 219 C0 146.73 0 74.46 0 0 Z " fill="#FEFEFE" transform="translate(1031,192)"/>
<path d="M0 0 C53.3219697 0 53.3219697 0 72.25 17.8125 C85.76876536 32.09288595 88.52856867 51.24155349 88.27734375 70.1640625 C87.71149774 87.30835196 82.40666075 102.91975595 70.1328125 115.23046875 C50.91665255 133.10039101 24.79109857 131 0 131 C0 87.77 0 44.54 0 0 Z " fill="#B20101" transform="translate(658,241)"/>
<path d="M0 0 C0.72364746 0.23976562 1.44729492 0.47953125 2.19287109 0.7265625 C12.58561969 4.24477733 22.32798723 8.84425765 32 14 C32.67063477 14.35465332 33.34126953 14.70930664 34.03222656 15.07470703 C69.47562245 33.9512449 69.47562245 33.9512449 75 45 C75.4207056 48.05913068 75.49462858 50.9480364 75 54 C72.5 57.0625 72.5 57.0625 70 59 C65.36243934 56.46779959 61.34929178 53.80002718 57.25 50.4375 C24.04844415 24.1701966 -19.69632218 11.49693577 -61.5625 11.6875 C-62.39560699 11.68932281 -63.22871399 11.69114563 -64.08706665 11.69302368 C-84.10991241 11.76662034 -102.81810612 14.13969149 -122 20 C-122.68271973 20.20431641 -123.36543945 20.40863281 -124.06884766 20.61914062 C-143.07112924 26.4262895 -161.84136908 35.43404384 -178 47 C-179.04027344 47.73863281 -180.08054687 48.47726563 -181.15234375 49.23828125 C-186.96945632 53.48558034 -192.41735796 58.00852142 -197.70703125 62.89453125 C-199.74089454 64.76208204 -201.82147023 66.5398422 -203.9375 68.3125 C-239.45339647 99.48677385 -260.99884702 149.2908608 -264.72265625 195.85546875 C-265.69181193 211.39601934 -265.57599333 226.9940024 -263.4375 242.42578125 C-263.04103546 245.66475497 -262.91918376 248.74209551 -263 252 C-267.89767299 250.86976777 -270.82271954 249.94168894 -274 246 C-288.77764062 202.6719577 -276.39280567 147.03189811 -257.14404297 107.30761719 C-231.57266626 55.72830591 -186.46114601 18.31369184 -132.53515625 -0.59375 C-90.0410496 -14.77633694 -42.35474582 -14.06202418 0 0 Z " fill="#FDFDFD" transform="translate(411,132)"/>
<path d="M0 0 C0.9051535 0.14963196 1.81030701 0.29926392 2.7428894 0.45343018 C5.71391629 0.94670709 8.68317005 1.44979795 11.65234375 1.95410156 C13.72921358 2.30344794 15.80611845 2.6525861 17.88305664 3.00152588 C22.22785769 3.73331413 26.57170571 4.47049047 30.91503906 5.2109375 C36.46751411 6.1566541 42.02281003 7.08451048 47.57905579 8.00777817 C51.8666387 8.72304764 56.15217348 9.45004039 60.43722534 10.18030548 C62.48414916 10.52727299 64.53177652 10.87011718 66.58010864 11.20867157 C69.44886885 11.68418321 72.31438324 12.1760201 75.1796875 12.671875 C76.01732635 12.80710571 76.85496521 12.94233643 77.71798706 13.08166504 C85.03845557 14.37952056 91.48651547 16.8140699 96.58984375 22.40722656 C99.72637318 25.73440778 102.97774137 28.69311606 106.53515625 31.56347656 C112.4075517 37.36888651 115.73880252 43.54201596 118.359375 51.30566406 C118.68218445 52.22402542 119.0049939 53.14238678 119.33758545 54.08857727 C120.37291017 57.04438044 121.38805261 60.00664735 122.40234375 62.96972656 C123.10877971 65.00243974 123.81638539 67.03474677 124.52514648 69.06665039 C125.91936442 73.0700691 127.30573985 77.07606529 128.68554688 81.08447266 C130.31881678 85.82317681 131.98409371 90.549591 133.66796875 95.27050781 C134.49628086 97.60768109 135.32442454 99.94491408 136.15234375 102.28222656 C136.52786377 103.33007324 136.90338379 104.37791992 137.2902832 105.45751953 C137.78081177 106.86155029 137.78081177 106.86155029 138.28125 108.29394531 C138.70192749 109.48250122 138.70192749 109.48250122 139.13110352 110.69506836 C139.58984375 112.59472656 139.58984375 112.59472656 138.58984375 114.59472656 C128.85940554 108.52796366 124.50685088 103.374995 120.58984375 92.40722656 C120.10442828 91.14166733 119.61507721 89.87761154 119.12207031 88.61499023 C117.83599618 85.30072645 116.59005123 81.97287485 115.3527832 78.64013672 C113.31984558 73.18991226 111.2173397 67.7668471 109.09375 62.35140991 C108.36192138 60.46416064 107.65515719 58.56725164 106.94921875 56.67016602 C102.27101466 44.57179197 94.72568798 33.95030827 83.09936523 27.72607422 C75.50140693 24.41056189 67.19977185 23.37118371 59.08984375 21.92285156 C57.28566717 21.59303041 55.48163284 21.2624302 53.67773438 20.93109131 C49.91012055 20.24161661 46.14119877 19.5599939 42.37109375 18.88427734 C37.55728041 18.02107642 32.74680183 17.14072228 27.93713379 16.2547493 C24.21659628 15.57095099 20.49465042 14.89509526 16.7722168 14.22170258 C14.99854627 13.90011179 13.22526224 13.57638127 11.45239258 13.25040436 C8.96830194 12.79513956 6.48255135 12.35033305 3.99609375 11.90820312 C3.27583008 11.77422623 2.55556641 11.64024933 1.81347656 11.50221252 C-7.35504686 9.73747137 -7.35504686 9.73747137 -15.91015625 12.15722656 C-17.91149037 15.4093945 -18.34326721 17.78205155 -18.41015625 21.59472656 C-17.63571728 24.46927292 -17.63571728 24.46927292 -15.41015625 26.59472656 C-8.63251046 29.54965928 -1.47735629 31.26964716 5.66222382 33.1231823 C7.86834434 33.69602805 10.07301284 34.27419327 12.27740479 34.85365295 C16.96366901 36.08450999 21.65163705 37.30879234 26.33984375 38.53222656 C31.76577603 39.94837365 37.19094432 41.36733687 42.61444855 42.79275703 C44.76473138 43.35647511 46.916216 43.91541715 49.06781006 44.47410583 C79.43610731 52.41141781 79.43610731 52.41141781 89.58984375 66.59472656 C95.19762882 77.07277225 99.17311533 88.17593782 102.96484375 99.40722656 C103.25177094 100.24903473 103.53869812 101.0908429 103.83432007 101.9581604 C109.65544408 119.09114914 114.82014309 136.41921655 119.90234375 153.78222656 C120.09207512 154.42947819 120.28180649 155.07672981 120.47728729 155.74359512 C121.74818799 160.08096129 123.00964558 164.42098679 124.265625 168.76269531 C124.74901588 170.42418106 124.74901588 170.42418106 125.24217224 172.11923218 C125.53777542 173.14908234 125.8333786 174.1789325 126.13793945 175.23999023 C126.39549515 176.13336594 126.65305084 177.02674164 126.91841125 177.94718933 C128.92967745 185.87784831 128.92967745 185.87784831 127.49731445 188.89941406 C125.01339386 191.10706088 123.35970174 191.32085198 120.0703125 191.71972656 C118.92071045 191.86708252 117.7711084 192.01443848 116.58666992 192.16625977 C115.32959229 192.30765381 114.07251465 192.44904785 112.77734375 192.59472656 C111.47321533 192.75352295 110.16908691 192.91231934 108.82543945 193.07592773 C105.20396237 193.5133789 101.57985756 193.92386716 97.95458984 194.32855225 C95.50153525 194.60466651 93.04955076 194.88906877 90.59765625 195.17529297 C86.33051971 195.67224182 82.06204123 196.1555343 77.79214478 196.62817383 C76.12778373 196.81285822 74.46369298 196.99999644 72.79989624 197.18969727 C50.22585989 199.74073744 50.22585989 199.74073744 42.58984375 194.59472656 C36.73802406 189.45618838 33.17965734 182.68859257 29.35693359 176.02368164 C25.82505908 169.89215983 21.93347381 164.18571271 17.58984375 158.59472656 C16.96722656 157.78003906 16.34460938 156.96535156 15.703125 156.12597656 C-4.97355281 129.61956606 -31.21368395 108.59267501 -64.41015625 100.59472656 C-65.16441895 100.40418701 -65.91868164 100.21364746 -66.69580078 100.01733398 C-76.26445458 97.9169644 -85.95534099 98.53824757 -95.68359375 98.86206055 C-98.00660189 98.93465455 -100.32853283 98.97576772 -102.65234375 99.01269531 C-103.357612 99.04477585 -104.06288025 99.07685638 -104.78952026 99.10990906 C-108.70987138 99.15020108 -110.25791951 98.71829699 -113.34423828 96.21313477 C-115.21792766 93.83836301 -116.08165461 92.55124128 -116.41015625 89.59472656 C-86.67903582 80.30375143 -51.43406881 87.99778085 -23.91015625 100.90722656 C-16.76950196 104.69700644 -10.55526422 109.38278591 -4.41015625 114.59472656 C-3.90242676 115.02269531 -3.39469727 115.45066406 -2.87158203 115.89160156 C17.61651234 133.37196734 32.8951009 156.09089065 45.02807617 179.93652344 C46.65167966 183.37692343 46.65167966 183.37692343 49.58984375 185.59472656 C56.72214401 185.85718513 63.62640969 185.1580135 70.703125 184.31738281 C71.83509811 184.18657822 72.96707123 184.05577362 74.13334656 183.92100525 C76.51113806 183.64516777 78.88864327 183.36685214 81.26586914 183.08618164 C84.90769293 182.65659558 88.55041564 182.2354016 92.19335938 181.81542969 C94.50917185 181.54573869 96.82492911 181.27557302 99.140625 181.00488281 C100.22918289 180.87880142 101.31774078 180.75272003 102.43928528 180.62281799 C103.45101303 180.50276901 104.46274078 180.38272003 105.50512695 180.2590332 C106.39287308 180.15466446 107.2806192 180.05029572 108.19526672 179.94276428 C110.38217573 179.62490989 112.4594597 179.17535743 114.58984375 178.59472656 C114.85815522 172.59880378 114.11281419 168.08111244 112.08984375 162.46191406 C111.82248413 161.68765579 111.55512451 160.91339752 111.27966309 160.11567688 C110.39488611 157.56273058 109.49269698 155.01633059 108.58984375 152.46972656 C107.96184267 150.67232219 107.33491054 148.87454401 106.70898438 147.07641602 C105.37683402 143.25414701 104.03784803 139.43435526 102.6953125 135.61572266 C100.53244549 129.44966105 98.41900683 123.26717658 96.30859375 117.08300781 C95.24811361 113.98818659 94.18642241 110.8937846 93.12402344 107.79962158 C92.44131872 105.80771452 91.76093195 103.81501132 91.08300781 101.82147217 C85.10011121 80.66542537 85.10011121 80.66542537 70.58984375 65.59472656 C62.74792579 62.36961867 54.57227022 60.27363575 46.41015625 58.03222656 C44.83119218 57.59564498 43.25232624 57.15870838 41.67355347 56.72143555 C37.5322132 55.5752725 33.38973749 54.43327147 29.24694824 53.2923584 C22.6248646 51.46787746 16.00456907 49.63691852 9.38421249 47.80618286 C7.08819649 47.17187959 4.79171705 46.53927893 2.49514771 45.90698242 C-3.42058627 44.27644936 -9.33587112 42.64227559 -15.23095703 40.93847656 C-15.97225861 40.72513672 -16.71356018 40.51179688 -17.47732544 40.29199219 C-22.85023805 38.35372255 -25.58998892 34.66879028 -28.22265625 29.84472656 C-31.06751671 23.63943222 -32.4719846 18.0305515 -30.28515625 11.40722656 C-28.07008305 6.37570283 -25.22724652 2.80612008 -20.59765625 -0.28027344 C-13.88042266 -2.65106176 -6.85526678 -1.17299858 0 0 Z " fill="#FDFCFC" transform="translate(328.41015625,331.4052734375)"/>
<path d="M0 0 C16.83 0 33.66 0 51 0 C51 52.14 51 104.28 51 158 C34.17 158 17.34 158 0 158 C0 105.86 0 53.72 0 0 Z " fill="#FEFEFE" transform="translate(1536,253)"/>
<path d="M0 0 C10.07116316 6.9597469 14.52587934 14.41493083 16.921875 26.328125 C17.34975034 30.9406964 17.39895182 35.51045147 17.359375 40.140625 C17.35180176 41.37659424 17.34422852 42.61256348 17.33642578 43.88598633 C17.09149238 57.43330657 14.82040745 68.87897371 5.296875 79.06640625 C-4.04909323 87.78498309 -14.88176851 88.73808656 -27.078125 88.328125 C-39.30664153 87.75803099 -39.30664153 87.75803099 -45.078125 85.328125 C-45.26353446 75.11447097 -45.40565547 64.90121751 -45.49262238 54.68622303 C-45.5343645 49.94279839 -45.59097168 45.2005254 -45.68164062 40.45776367 C-45.76860647 35.88002414 -45.81640648 31.30339161 -45.83714294 26.72488976 C-45.85191834 24.97883356 -45.88077362 23.23283762 -45.92396545 21.48725319 C-46.24934119 7.79181166 -46.24934119 7.79181166 -43.35032654 4.16886902 C-41.26187215 2.8305248 -39.44649217 2.03478705 -37.078125 1.328125 C-36.07910156 0.87824219 -35.08007812 0.42835938 -34.05078125 -0.03515625 C-23.63024813 -3.4340684 -10.06685298 -5.54067102 0 0 Z " fill="#B20303" transform="translate(1225.078125,289.671875)"/>
<path d="M0 0 C17.82 0 35.64 0 54 0 C54 12.87 54 25.74 54 39 C36.18 39 18.36 39 0 39 C0 26.13 0 13.26 0 0 Z " fill="#FDF9F9" transform="translate(1535,192)"/>
<path d="M0 0 C1.12208862 0.00628418 1.12208862 0.00628418 2.2668457 0.01269531 C10.49280482 0.1808824 17.14744106 2.01267905 23.625 7.3125 C30.54136882 14.85942097 31.625 22.24035847 31.625 32.3125 C10.175 32.3125 -11.275 32.3125 -33.375 32.3125 C-33.375 21.49226159 -31.5321959 15.86621969 -24.23046875 8.03515625 C-17.40846593 1.70146521 -9.05348375 -0.06922713 0 0 Z " fill="#B30505" transform="translate(913.375,279.6875)"/>
</svg>
