<?xml version="1.0" encoding="UTF-8"?>
<svg version="1.1" xmlns="http://www.w3.org/2000/svg" width="1536" height="1024">
<path d="M0 0 C506.88 0 1013.76 0 1536 0 C1536 337.92 1536 675.84 1536 1024 C1029.12 1024 522.24 1024 0 1024 C0 686.08 0 348.16 0 0 Z " fill="#050919" transform="translate(0,0)"/>
<path d="M0 0 C4.87698744 5.51754698 4.68058178 12.64470087 4.37890625 19.65625 C1.56833784 58.84561773 -27.56191573 94.22186269 -55.65234375 119.375 C-61.15062165 123.93759041 -67.04197305 127.57963642 -73.21484375 131.140625 C-75.89396762 132.9292126 -77.17839652 134.41198813 -79 137 C-60.47383901 134.35750958 -60.47383901 134.35750958 -43 128 C-48.23684045 145.29194347 -61.55790224 161.33424927 -73 175 C-73.78632813 175.97066406 -74.57265625 176.94132813 -75.3828125 177.94140625 C-81.85092348 185.80870243 -88.88346542 193.09676496 -96.0625 200.3125 C-97.42689209 201.69066895 -97.42689209 201.69066895 -98.81884766 203.09667969 C-104.90531455 209.15579414 -111.27766066 214.66142047 -118 220 C-119.62587223 221.3322696 -121.25099862 222.66545052 -122.875 224 C-135.41478374 233.91334085 -146.87548528 241.06475501 -162.625 244.5625 C-169.40479724 246.15774641 -172.02113441 249.30895205 -175.61328125 255.0703125 C-180.14210412 262.67314955 -183.66084037 270.76478578 -187.3125 278.8125 C-188.07230654 280.47298653 -188.83248124 282.13330464 -189.59301758 283.79345703 C-193.97052523 293.37665423 -198.29184604 302.98344266 -202.13598633 312.79614258 C-205.97694575 322.22846366 -212.50059564 327.51292978 -220.625 333.375 C-221.470625 334.00277344 -222.31625 334.63054687 -223.1875 335.27734375 C-230.02234769 340.26872306 -230.02234769 340.26872306 -234 341 C-233.49756583 333.71095496 -231.73257921 327.57723249 -229.1875 320.75 C-228.5989624 319.14427124 -228.5989624 319.14427124 -227.99853516 317.50610352 C-223.04921168 304.18166563 -217.55331705 291.08150951 -212 278 C-211.64131836 277.14986328 -211.28263672 276.29972656 -210.91308594 275.42382812 C-207.37438944 267.05435722 -203.53576402 258.86215426 -199.41015625 250.765625 C-197.52648426 247.0646588 -195.69372068 243.34077156 -193.87109375 239.609375 C-186.64440726 224.87528411 -178.961935 210.56921446 -170.49560547 196.49609375 C-169.22922836 194.38257113 -167.98409195 192.25968359 -166.75390625 190.125 C-146.48206332 155.35068854 -122.11097732 121.77142233 -94.921875 92.1015625 C-93.18256911 90.19963858 -91.49236869 88.26680268 -89.8125 86.3125 C-86.20982007 82.19150999 -82.51972238 78.15181871 -78.8125 74.125 C-78.20575439 73.45766846 -77.59900879 72.79033691 -76.97387695 72.1027832 C-76.39081787 71.47331787 -75.80775879 70.84385254 -75.20703125 70.1953125 C-74.6860083 69.62828613 -74.16498535 69.06125977 -73.62817383 68.47705078 C-72 67 -72 67 -69.86206055 65.98779297 C-67.64550254 65.08629107 -67.64550254 65.08629107 -67 62 C-66.34 61.34 -65.68 60.68 -65 60 C-74.22152966 66.11247056 -82.67903093 72.72192572 -91 80 C-91.73992187 80.639375 -92.47984375 81.27875 -93.2421875 81.9375 C-95.17296568 83.61239191 -97.08770952 85.30404945 -99 87 C-99.73089844 87.63808594 -100.46179688 88.27617187 -101.21484375 88.93359375 C-112.41019414 98.82251751 -122.7531688 109.26243986 -132 121 C-132.97894253 122.19243172 -133.96091674 123.38237863 -134.9453125 124.5703125 C-153.97685158 147.58289426 -170.08226427 172.16258166 -185 198 C-185.6499292 199.12196777 -185.6499292 199.12196777 -186.31298828 200.26660156 C-191.93061789 209.9936518 -197.06272767 219.91233568 -202 230 C-202.66496653 231.33418205 -203.33064381 232.66801482 -204 234 C-204.66 234 -205.32 234 -206 234 C-213.20931024 214.57685833 -213.39925319 195.97615186 -209 176 C-208.73316406 174.76636719 -208.46632812 173.53273438 -208.19140625 172.26171875 C-200.24797816 139.39357853 -180.06140469 110.9822328 -158 86 C-157.15953125 85.04738281 -156.3190625 84.09476562 -155.453125 83.11328125 C-149.17744827 76.12501155 -142.57185956 69.4468884 -135.95690918 62.78167725 C-134.96114564 61.77787368 -133.96686706 60.77259438 -132.97424316 59.76568604 C-126.33407975 53.04013218 -119.4242685 46.85390503 -112 41 C-110.77305693 40.01088856 -109.54643843 39.0213742 -108.3203125 38.03125 C-86.9076665 20.98726665 -28.25132658 -22.95420285 0 0 Z " fill="#FDD440" transform="translate(431,339)"/>
<path d="M0 0 C0.8751123 0.00757324 1.75022461 0.01514648 2.65185547 0.02294922 C16.05302788 0.36237621 28.65489831 5.90489831 38.1875 15.4375 C51.29974893 33.18946778 54.32627243 53.93839114 51.36279297 75.37963867 C49.35298879 88.16475233 45.44678998 99.29702684 37.1875 109.4375 C36.66542969 110.08460938 36.14335938 110.73171875 35.60546875 111.3984375 C29.45101543 118.25668475 19.05863196 123.7991359 9.83032227 124.65649414 C-6.15895886 125.36088719 -17.4261499 124.17233676 -29.8125 113.4375 C-31.7925 111.7875 -33.7725 110.1375 -35.8125 108.4375 C-35.8125 127.9075 -35.8125 147.3775 -35.8125 167.4375 C-45.7125 167.4375 -55.6125 167.4375 -65.8125 167.4375 C-65.8125 112.9875 -65.8125 58.5375 -65.8125 2.4375 C-56.5725 2.4375 -47.3325 2.4375 -37.8125 2.4375 C-37.1525 7.0575 -36.4925 11.6775 -35.8125 16.4375 C-34.389375 14.890625 -34.389375 14.890625 -32.9375 13.3125 C-23.79609772 4.20795822 -12.78967861 -0.15618332 0 0 Z " fill="#FDFDFD" transform="translate(840.8125,445.5625)"/>
<path d="M0 0 C90.54848655 0 90.54848655 0 107.2578125 15.9921875 C118.36709065 28.79525694 120.78775771 42.53788373 120 59 C119.00462761 69.77270113 116.38551288 78.21991979 110 87 C109.195625 88.2065625 109.195625 88.2065625 108.375 89.4375 C97.83276902 100.81201237 82.68586861 105.17876556 67.59295654 106.15582275 C61.72664897 106.35871278 55.86816947 106.27468923 50 106.1875 C44.06 106.125625 38.12 106.06375 32 106 C32 125.47 32 144.94 32 165 C21.44 165 10.88 165 0 165 C0 110.55 0 56.1 0 0 Z " fill="#FDFDFD" transform="translate(513,403)"/>
<path d="M0 0 C1.18070068 0.00942627 2.36140137 0.01885254 3.57788086 0.02856445 C17.11664395 0.26297361 31.45051698 1.6722622 41.375 11.9375 C48.2367769 20.45388977 50.72241215 30.41835732 50.67602539 41.09082031 C50.67617142 41.96922577 50.67631744 42.84763123 50.6764679 43.75265503 C50.67577185 46.6528369 50.66799386 49.55295436 50.66015625 52.453125 C50.65829098 54.46522995 50.65686759 56.47733535 50.65586853 58.48944092 C50.65205198 63.78305314 50.64222902 69.07663789 50.63116455 74.37023926 C50.62093192 79.77286406 50.61636694 85.1754933 50.61132812 90.578125 C50.600606 101.17709734 50.58301615 111.77604209 50.5625 122.375 C41.3225 122.375 32.0825 122.375 22.5625 122.375 C22.2325 117.755 21.9025 113.135 21.5625 108.375 C20.49 109.40625 19.4175 110.4375 18.3125 111.5 C6.31890938 122.03982206 -7.87822962 125.28538284 -23.4375 124.375 C-35.39804442 122.57524983 -43.6497494 117.67139098 -51.0625 108.125 C-56.56873197 100.06540493 -57.68122877 91.28805909 -55.96875 81.76953125 C-53.41500738 71.96498369 -48.12409025 64.59015363 -39.4375 59.375 C-27.72089263 52.93634099 -14.5101218 51.65193497 -1.4375 50.375 C-0.31472656 50.2615625 0.80804687 50.148125 1.96484375 50.03125 C8.17881319 49.45543816 14.32346569 49.25077144 20.5625 49.375 C20.3943796 37.8734319 20.3943796 37.8734319 14.5625 28.375 C8.88420269 23.2249164 0.96072576 23.61638223 -6.28515625 23.9296875 C-11.71544215 24.36981482 -16.2119177 25.8551335 -20.4375 29.375 C-22.2531107 31.68144508 -23.26171793 33.64932339 -24.4375 36.375 C-33.45220449 35.84339258 -42.44986323 35.26995536 -51.4375 34.375 C-47.43926232 21.03472619 -42.42018485 12.13325287 -30.05078125 4.84765625 C-20.26198512 0.85806042 -10.48661778 -0.13011439 0 0 Z " fill="#FCFCFD" transform="translate(696.4375,445.625)"/>
<path d="M0 0 C10.56 0 21.12 0 32 0 C41.77564463 27.52928497 51.07372931 55.18382162 60 83 C61.67545193 80.48682211 62.47734793 78.90112257 63.35351562 76.11230469 C63.60172058 75.33062424 63.84992554 74.54894379 64.10565186 73.74357605 C64.36984924 72.8949147 64.63404663 72.04625336 64.90625 71.171875 C65.3279245 69.8377935 65.3279245 69.8377935 65.75811768 68.47676086 C66.36226907 66.56354222 66.96426477 64.64964178 67.56433105 62.73513794 C68.50253325 59.74191797 69.44620332 56.75047579 70.39160156 53.75952148 C71.66028915 49.74556813 72.92734797 45.73110675 74.19335938 41.71630859 C76.47697804 34.48237933 78.78697346 27.25705671 81.11401367 20.0369873 C81.73716932 18.10233422 82.35789244 16.166912 82.97851562 14.23144531 C83.35169922 13.07354492 83.72488281 11.91564453 84.109375 10.72265625 C84.42874023 9.73015869 84.74810547 8.73766113 85.07714844 7.71508789 C85.96216213 5.1113214 86.97865206 2.55336984 88 0 C98.89 0 109.78 0 121 0 C115.10864541 16.4278157 109.13842222 32.82311679 103.08770752 49.19281006 C96.54380977 66.8998802 90.0213055 84.61399148 83.625 102.375 C83.10376098 103.8195285 82.58244146 105.26402796 82.06103516 106.70849609 C79.991226 112.44647031 77.93050877 118.187153 75.90625 123.94140625 C69.68130039 141.50736384 62.60068113 157.03833503 44.96875 165.4453125 C36.72306035 169.01708401 29.72372022 170.1683636 20.8125 170.125 C20.00619141 170.12886719 19.19988281 170.13273438 18.36914062 170.13671875 C17.59376953 170.13542969 16.81839844 170.13414062 16.01953125 170.1328125 C15.31932861 170.13168457 14.61912598 170.13055664 13.89770508 170.12939453 C12 170 12 170 9 169 C9 160.09 9 151.18 9 142 C11.31 142.33 13.62 142.66 16 143 C21.19996132 143.43039029 25.529134 143.69380471 30.3125 141.4375 C35.95306455 136.32163913 41.26902153 130.65211861 43 123 C42.53565213 116.95897736 41.11309967 111.83035973 39 106.17578125 C38.69244278 105.33260849 38.38488556 104.48943573 38.06800842 103.62071228 C37.05383944 100.84810398 36.02721267 98.08029959 35 95.3125 C34.28261787 93.36118777 33.56574852 91.40968696 32.84936523 89.45800781 C25.04675898 68.25036042 17.02489352 47.12427163 9 26 C7.14117635 21.10591478 5.28690291 16.2101554 3.4375 11.3125 C3.07342041 10.35698242 2.70934082 9.40146484 2.33422852 8.41699219 C2.01639404 7.57426758 1.69855957 6.73154297 1.37109375 5.86328125 C1.10224365 5.15469971 0.83339355 4.44611816 0.55639648 3.71606445 C0 2 0 2 0 0 Z " fill="#FCFDFD" transform="translate(901,448)"/>
<path d="M0 0 C9.57 0 19.14 0 29 0 C29.0093457 2.30524658 29.01869141 4.61049316 29.02832031 6.9855957 C29.06222143 14.63718281 29.11784266 22.28850393 29.18390274 29.93987751 C29.22326345 34.57492211 29.25550751 39.20977998 29.27099609 43.8449707 C29.2862383 48.32561297 29.32081631 52.80574145 29.36830902 57.28615379 C29.38304532 58.98795267 29.39103652 60.68982493 29.39188385 62.39168739 C29.01548714 77.66960743 29.01548714 77.66960743 35.73907471 90.77998352 C38.90588903 93.28784622 41.94301348 94.71695443 46 95 C47.09634766 95.0928125 47.09634766 95.0928125 48.21484375 95.1875 C56.04518556 95.57358773 62.03333777 93.39248837 68.3125 88.75 C76.45039853 80.42284802 75.60400583 71.04356825 75.609375 60.15625 C75.62437072 58.41888904 75.64110078 56.68154227 75.65948486 54.94421387 C75.70301456 50.39375115 75.72312541 45.8434807 75.73822021 41.29284668 C75.75784338 36.64042866 75.79980742 31.98821671 75.83984375 27.3359375 C75.91499017 18.22398723 75.96330833 9.11218634 76 0 C86.23 0 96.46 0 107 0 C107 39.6 107 79.2 107 120 C97.43 120 87.86 120 78 120 C78 115.05 78 110.1 78 105 C76.88625 106.010625 75.7725 107.02125 74.625 108.0625 C71.52614734 110.75691687 68.37337616 113.31995161 65.0625 115.75 C64.31097656 116.30171875 63.55945312 116.8534375 62.78515625 117.421875 C55.96127573 121.28842161 49.40023006 122.51419849 41.625 122.375 C40.79427979 122.36412354 39.96355957 122.35324707 39.10766602 122.34204102 C28.02717317 122.05554179 19.37971365 119.56972376 11 112 C1.89969305 101.62760713 -0.17684804 88.70841387 -0.11352539 75.38085938 C-0.11367142 74.56039124 -0.11381744 73.7399231 -0.1139679 72.89459229 C-0.11327706 70.2109503 -0.10552389 67.5273797 -0.09765625 64.84375 C-0.09578912 62.97188352 -0.09436661 61.10001656 -0.09336853 59.22814941 C-0.08956659 54.32257721 -0.07975632 49.41703503 -0.06866455 44.51147461 C-0.0584003 39.4972372 -0.0538602 34.4829949 -0.04882812 29.46875 C-0.0381318 19.64581808 -0.020554 9.82291624 0 0 Z " fill="#FCFCFD" transform="translate(1129,448)"/>
<path d="M0 0 C0.90363281 0.43570312 1.80726562 0.87140625 2.73828125 1.3203125 C11.13128311 5.87118462 16.82570877 12.4844459 21 21 C21 21.99 21 22.98 21 24 C18.1685963 24.81977607 15.33517098 25.63094274 12.5 26.4375 C11.70851563 26.66759766 10.91703125 26.89769531 10.1015625 27.13476562 C5.0598354 28.56049993 0.21491823 29.47970426 -5 30 C-5.556875 29.071875 -6.11375 28.14375 -6.6875 27.1875 C-10.69983494 21.65698427 -14.95215308 20.48634754 -21.453125 19.3515625 C-28.46183111 18.38410307 -34.53869661 18.96633926 -41 22 C-44.05595801 24.50032928 -43.9941439 25.95388321 -44.5 29.9375 C-44.33619817 32.98195466 -43.96836477 34.0515537 -42.3125 36.75 C-37.76346669 40.51170063 -31.58301122 41.52718871 -26 43 C-23.23803282 43.73732244 -20.47678048 44.47713705 -17.71655273 45.22094727 C-15.82745913 45.72772303 -13.93641589 46.22730455 -12.04321289 46.71850586 C0.15951484 49.95461871 12.65934053 53.94792984 19.5625 65.25 C24.26888313 73.8361494 24.34741722 84.57135879 22.3515625 94.09375 C18.53773296 104.39434944 11.76163422 111.23411579 2 116 C-6.92673216 120.02887911 -15.49202397 120.20802625 -25.125 120.25 C-26.28515625 120.270625 -27.4453125 120.29125 -28.640625 120.3125 C-42.439801 120.37424128 -55.31955271 117.30944822 -65.8125 107.875 C-70.74319333 102.5512804 -75 95.30841607 -75 88 C-66.72342182 85.76308698 -58.49307438 84.1643731 -50 83 C-49.70867187 83.53109375 -49.41734375 84.0621875 -49.1171875 84.609375 C-45.67795553 90.53610179 -42.44708696 93.84958162 -35.76953125 96.078125 C-28.28718376 97.9080048 -19.33285652 98.57403032 -12.1875 95.25 C-9.06378301 93.0450233 -8.30797285 92.38098643 -7 89 C-6.57706909 86.78086118 -6.57706909 86.78086118 -6.5625 84.5 C-6.52253906 83.7471875 -6.48257812 82.994375 -6.44140625 82.21875 C-7.28569245 78.86522161 -9.17413628 77.87473852 -12 76 C-18.80379567 72.66129531 -26.17092658 70.62879078 -33.42285156 68.50854492 C-62.79797223 59.89916999 -62.79797223 59.89916999 -70.92578125 46.15625 C-74.90766954 38.16351424 -74.89611066 28.87704441 -72.17578125 20.4453125 C-71.22652693 18.21662845 -70.17339818 16.11804725 -69 14 C-68.46375 12.96875 -67.9275 11.9375 -67.375 10.875 C-52.73645097 -6.84534882 -19.81444081 -9.65242048 0 0 Z " fill="#FCFCFD" transform="translate(1332,450)"/>
<path d="M0 0 C1.19012695 0.01450195 1.19012695 0.01450195 2.40429688 0.02929688 C6.14071813 0.10145279 9.14100894 0.39462724 12.8125 1.3125 C12.8125 10.5525 12.8125 19.7925 12.8125 29.3125 C10.1725 28.9825 7.5325 28.6525 4.8125 28.3125 C-3.3464325 27.52582607 -9.39092442 28.54216075 -16.1875 33.3125 C-22.67961357 38.93655319 -25.76929011 45.32851258 -26.48872375 53.90231323 C-26.666421 58.24740703 -26.68190095 62.59327822 -26.69921875 66.94140625 C-26.71608934 68.54281469 -26.73424274 70.14421009 -26.75361633 71.74559021 C-26.80086447 75.93266724 -26.83083591 80.11969134 -26.85705566 84.3069458 C-26.88698922 88.59080453 -26.93347517 92.87448131 -26.97851562 97.15820312 C-27.06426185 105.54289384 -27.13020121 113.92756658 -27.1875 122.3125 C-36.7575 122.3125 -46.3275 122.3125 -56.1875 122.3125 C-56.1875 82.7125 -56.1875 43.1125 -56.1875 2.3125 C-47.6075 2.3125 -39.0275 2.3125 -30.1875 2.3125 C-29.0625 10.1875 -29.0625 10.1875 -29.125 14.25 C-29.13402344 15.02214844 -29.14304687 15.79429687 -29.15234375 16.58984375 C-29.16394531 17.15832031 -29.17554688 17.72679687 -29.1875 18.3125 C-28.5275 18.3125 -27.8675 18.3125 -27.1875 18.3125 C-26.94386719 17.755625 -26.70023438 17.19875 -26.44921875 16.625 C-24.93090799 13.84221372 -23.10176448 11.68557659 -21 9.3125 C-19.89591797 8.0440625 -19.89591797 8.0440625 -18.76953125 6.75 C-12.67488393 0.9965054 -8.13887216 -0.30193672 0 0 Z " fill="#FEFEFE" transform="translate(1095.1875,445.6875)"/>
<path d="M0 0 C6.91862381 5.31737026 10.24755331 13.56067756 11.63671875 21.98828125 C12.95431641 35.1085847 12.40297618 48.48698999 4.9140625 59.75 C0.08488398 65.21308024 -5.31391503 68.40862143 -12.58203125 69.06640625 C-21.3324418 69.33524939 -27.39627029 68.95519746 -33.9765625 63.0546875 C-42.33879786 54.37623315 -44.26538524 44.14970886 -44.2734375 32.5625 C-44.29180664 31.2002832 -44.29180664 31.2002832 -44.31054688 29.81054688 C-44.33480245 18.5155334 -42.16410407 10.42435038 -34.453125 1.95703125 C-24.3607 -7.54862486 -11.46332497 -6.86940822 0 0 Z " fill="#060A18" transform="translate(849.0859375,475.25)"/>
<path d="M0 0 C5.011875 -0.0825 10.02375 -0.165 15.1875 -0.25 C17.51590942 -0.30462402 17.51590942 -0.30462402 19.89135742 -0.36035156 C31.50892068 -0.45196224 42.78213588 0.64738412 51.48046875 9.19921875 C56.74760244 15.44124607 57.50354668 22.16274789 57 30 C55.93059172 37.45878435 52.80303533 43.16972547 46.76171875 47.90234375 C36.91275376 54.03883857 24.61136405 53.13532971 13.5 53.0625 C6.8175 53.0315625 6.8175 53.0315625 0 53 C0 35.51 0 18.02 0 0 Z " fill="#060B19" transform="translate(545,430)"/>
<path d="M0 0 C0.75540251 7.88975956 -0.69338288 13.344319 -5 20 C-10.14193232 26.22444439 -17.44518699 30.43597283 -25.5390625 31.2578125 C-31.90025143 31.52067155 -36.79467859 30.81805415 -42 27 C-45.13325329 23.62572723 -46.87000431 21.35195519 -47.3125 16.75 C-46.89108197 11.69298362 -45.00639239 8.72343961 -41.171875 5.4296875 C-29.84878831 -2.02399906 -12.98985251 -0.14836126 0 0 Z " fill="#060A17" transform="translate(718,516)"/>
<path d="M0 0 C1.25159912 0.00523682 2.50319824 0.01047363 3.79272461 0.01586914 C4.78942421 0.01799156 4.78942421 0.01799156 5.80625916 0.02015686 C7.93590735 0.02577021 10.06545175 0.03832485 12.19506836 0.05102539 C13.63582205 0.05603868 15.07657739 0.06060188 16.51733398 0.06469727 C20.05577938 0.07574394 23.59416375 0.09301747 27.13256836 0.11352539 C28.63800527 3.12439922 28.21340338 6.20359651 28.15429688 9.50073242 C28.14468933 10.26180298 28.13508179 11.02287354 28.12518311 11.80700684 C28.09213984 14.32854307 28.0518279 16.84990891 28.01147461 19.37133789 C27.98717869 21.11725255 27.96333487 22.86317356 27.93992615 24.60910034 C27.87703261 29.20903744 27.80798092 33.80886249 27.7376709 38.40869141 C27.667035 43.10061532 27.60218967 47.7926188 27.53686523 52.48461914 C27.40778499 61.69434201 27.27220262 70.90395692 27.13256836 80.11352539 C26.80256836 80.11352539 26.47256836 80.11352539 26.13256836 80.11352539 C26.13256836 54.37352539 26.13256836 28.63352539 26.13256836 2.11352539 C16.56256836 2.11352539 6.99256836 2.11352539 -2.86743164 2.11352539 C-2.86743164 31.48352539 -2.86743164 60.85352539 -2.86743164 91.11352539 C-3.19743164 91.11352539 -3.52743164 91.11352539 -3.86743164 91.11352539 C-3.89055379 79.39625752 -3.90834607 67.67899502 -3.91924381 55.96170902 C-3.92447292 50.52150227 -3.93157107 45.08131108 -3.94287109 39.64111328 C-3.95369899 34.39566837 -3.95970826 29.15023847 -3.96230888 23.90478325 C-3.96416331 21.89881593 -3.96778426 19.89284947 -3.9731617 17.8868885 C-3.98037083 15.08749715 -3.98142264 12.2881686 -3.98095703 9.48876953 C-3.98455231 8.65079834 -3.98814758 7.81282715 -3.99185181 6.94946289 C-3.97954493 0.15755542 -3.97954493 0.15755542 0 0 Z " fill="#25272C" transform="translate(1131.867431640625,445.886474609375)"/>
<path d="M0 0 C0.66 0.33 1.32 0.66 2 1 C1.113125 1.721875 0.22625 2.44375 -0.6875 3.1875 C-3.62966524 5.64273346 -6.32048415 8.25668615 -9 11 C-9.63164062 11.62132812 -10.26328125 12.24265625 -10.9140625 12.8828125 C-14.85200079 16.76175546 -18.54666492 20.68333115 -22 25 C-23.5625 23.75 -23.5625 23.75 -25 22 C-24.74948707 19.43044375 -24.26981514 18.27070019 -22.43701172 16.43188477 C-21.77459473 15.94002686 -21.11217773 15.44816895 -20.4296875 14.94140625 C-19.6975 14.39033203 -18.9653125 13.83925781 -18.2109375 13.27148438 C-17.44007813 12.70751953 -16.66921875 12.14355469 -15.875 11.5625 C-15.12734375 11.00240234 -14.3796875 10.44230469 -13.609375 9.86523438 C-9.11850414 6.51272886 -4.57041155 3.24293127 0 0 Z " fill="#0C0B16" transform="translate(368,396)"/>
<path d="M0 0 C0.73863281 0.00515625 1.47726562 0.0103125 2.23828125 0.015625 C6.8211323 0.08028604 11.21273191 0.56387653 15.75 1.25 C17.07 1.25 18.39 1.25 19.75 1.25 C19.75 1.91 19.75 2.57 19.75 3.25 C21.4 3.25 23.05 3.25 24.75 3.25 C24.42 3.91 24.09 4.57 23.75 5.25 C21.94208984 5.01990234 21.94208984 5.01990234 20.09765625 4.78515625 C13.80880969 4.08639552 7.50817071 3.90087073 1.1875 3.6875 C-0.01197266 3.64431641 -1.21144531 3.60113281 -2.44726562 3.55664062 C-5.38141793 3.45143198 -8.3156425 3.34929117 -11.25 3.25 C-7.99328559 -0.55997864 -4.7267721 -0.12927924 0 0 Z " fill="#171A22" transform="translate(695.25,442.75)"/>
<path d="M0 0 C0.99 0.495 0.99 0.495 2 1 C2 1.66 2 2.32 2 3 C2.66 3.33 3.32 3.66 4 4 C3.67 4.33 3.34 4.66 3 5 C2.87700834 6.68709347 2.82214742 8.37920903 2.79467773 10.07055664 C2.77473251 11.15160172 2.75478729 12.23264679 2.73423767 13.34645081 C2.71752518 14.5224736 2.70081268 15.6984964 2.68359375 16.91015625 C2.66281265 18.10732773 2.64203156 19.30449921 2.62062073 20.53794861 C2.55499721 24.37940487 2.49618097 28.22093201 2.4375 32.0625 C2.39432695 34.65951267 2.35071307 37.25651806 2.30664062 39.85351562 C2.19930284 46.23560117 2.09756069 52.61775793 2 59 C1.67 59 1.34 59 1 59 C0.67 39.53 0.34 20.06 0 0 Z " fill="#0F1321" transform="translate(806,554)"/>
<path d="M0 0 C3.33331439 -0.02937438 6.66659483 -0.04692334 10 -0.0625 C10.93457031 -0.07087891 11.86914062 -0.07925781 12.83203125 -0.08789062 C18.32274401 -0.10708892 23.56866481 0.1865807 29 1 C29 1.33 29 1.66 29 2 C21.65939989 3.16532027 14.42007939 3.1134298 7 3.0625 C5.74832031 3.05798828 4.49664063 3.05347656 3.20703125 3.04882812 C0.13797059 3.03711415 -2.93098907 3.02071073 -6 3 C-6 2.67 -6 2.34 -6 2 C-4.02 1.67 -2.04 1.34 0 1 C0 0.67 0 0.34 0 0 Z " fill="#181D2B" transform="translate(552,480)"/>
<path d="M0 0 C0.66 0 1.32 0 2 0 C2 4.95 2 9.9 2 15 C1.01 15 0.02 15 -1 15 C-1.22134176 12.87631556 -1.42670007 10.75095976 -1.625 8.625 C-1.74101563 7.44164062 -1.85703125 6.25828125 -1.9765625 5.0390625 C-1.98429687 4.03617188 -1.99203125 3.03328125 -2 2 C-1.34 1.34 -0.68 0.68 0 0 Z " fill="#13161F" transform="translate(1205,553)"/>
<path d="M0 0 C2.98052395 2.55473482 4.46340188 5.41460439 6 9 C6 10.32 6 11.64 6 13 C3.125 13.625 3.125 13.625 0 14 C-0.66 13.34 -1.32 12.68 -2 12 C-0.02 11.67 1.96 11.34 4 11 C3.71125 10.45730469 3.4225 9.91460937 3.125 9.35546875 C2.75375 8.64003906 2.3825 7.92460937 2 7.1875 C1.443125 6.12595703 1.443125 6.12595703 0.875 5.04296875 C0 3 0 3 0 0 Z " fill="#121319" transform="translate(1349,463)"/>
<path d="M0 0 C1.7290774 -0.02725341 3.45828176 -0.04650987 5.1875 -0.0625 C6.15042969 -0.07410156 7.11335937 -0.08570313 8.10546875 -0.09765625 C10.85576513 -0.00486622 13.32479591 0.37888315 16 1 C15.67 1.66 15.34 2.32 15 3 C9.5610835 3.21755666 5.12919186 3.10428384 0 1 C0 0.67 0 0.34 0 0 Z " fill="#0F1017" transform="translate(645,480)"/>
<path d="M0 0 C2.41486943 2.41486943 2.2961925 3.12707789 2.3125 6.4375 C2.33763672 7.61119141 2.33763672 7.61119141 2.36328125 8.80859375 C1.92353251 11.46127163 1.04371546 12.322967 -1 14 C-1.02705729 12.22925083 -1.04642195 10.45838289 -1.0625 8.6875 C-1.07410156 7.70136719 -1.08570313 6.71523438 -1.09765625 5.69921875 C-1 3 -1 3 0 0 Z " fill="#12141E" transform="translate(600,449)"/>
<path d="M0 0 C0.99 0 1.98 0 3 0 C3.33 0.99 3.66 1.98 4 3 C4.66 3 5.32 3 6 3 C5.34 5.31 4.68 7.62 4 10 C1.04816899 7.04816899 0.91336012 4.04488053 0 0 Z " fill="#111218" transform="translate(958,523)"/>
<path d="M0 0 C4.2829452 0.5479083 6.85135641 2.02432804 10.3125 4.5625 C11.19550781 5.20316406 12.07851563 5.84382813 12.98828125 6.50390625 C13.65214844 6.99761719 14.31601562 7.49132812 15 8 C14.34 8.66 13.68 9.32 13 10 C12.56429687 9.60167969 12.12859375 9.20335937 11.6796875 8.79296875 C7.99005314 5.51063169 4.56922802 3.00600254 0 1 C0 0.67 0 0.34 0 0 Z " fill="#18191E" transform="translate(863,450)"/>
<path d="M0 0 C0.66 0.33 1.32 0.66 2 1 C1.071875 1.763125 0.14375 2.52625 -0.8125 3.3125 C-2.98276101 5.11848552 -5.05568065 6.9476629 -7 9 C-7.99 8.67 -8.98 8.34 -10 8 C-6.66666667 5.33333333 -3.33333333 2.66666667 0 0 Z " fill="#211B16" transform="translate(368,396)"/>
<path d="M0 0 C0.99 0.33 1.98 0.66 3 1 C0.03716687 3.38672669 -2.94270509 5.7353371 -6 8 C-6 6.68 -6 5.36 -6 4 C-3.1875 1.6875 -3.1875 1.6875 0 0 Z " fill="#101118" transform="translate(369,462)"/>
<path d="M0 0 C0.33 0.66 0.66 1.32 1 2 C-0.25 4 -0.25 4 -2 6 C-3.32 6 -4.64 6 -6 6 C-6 5.01 -6 4.02 -6 3 C-4.02 2.01 -2.04 1.02 0 0 Z " fill="#F4DE46" transform="translate(387,467)"/>
<path d="M0 0 C2 3 2 3 2 6 C0.02 6 -1.96 6 -4 6 C-2.84826645 3.53199953 -1.95216435 1.95216435 0 0 Z " fill="#17131A" transform="translate(356,470)"/>
<path d="M0 0 C3.72433382 1.2125738 7.37802806 2.50859979 11 4 C7.19362399 5.46399077 4.65257704 4.62336757 1 3 C0.67 2.01 0.34 1.02 0 0 Z " fill="#17181E" transform="translate(1273,563)"/>
<path d="M0 0 C-0.33 0.99 -0.66 1.98 -1 3 C-3.375 3.625 -3.375 3.625 -6 4 C-6.66 3.34 -7.32 2.68 -8 2 C-5.09399739 0.74335022 -3.20395416 0 0 0 Z " fill="#16171F" transform="translate(1186,568)"/>
<path d="M0 0 C-0.75 2.4375 -0.75 2.4375 -2 5 C-4.125 5.8125 -4.125 5.8125 -6 6 C-6.33 5.34 -6.66 4.68 -7 4 C-2.25 0 -2.25 0 0 0 Z " fill="#10121A" transform="translate(1202,558)"/>
</svg>
