<?xml version="1.0" encoding="UTF-8"?>
<svg version="1.1" xmlns="http://www.w3.org/2000/svg" width="2307" height="649">
<path d="M0 0 C761.31 0 1522.62 0 2307 0 C2307 214.17 2307 428.34 2307 649 C1545.69 649 784.38 649 0 649 C0 434.83 0 220.66 0 0 Z " fill="#050A19" transform="translate(0,0)"/>
<path d="M0 0 C27.1940625 -0.0928125 27.1940625 -0.0928125 54.9375 -0.1875 C60.62991943 -0.21481201 66.32233887 -0.24212402 72.18725586 -0.27026367 C79.21984863 -0.28381348 79.21984863 -0.28381348 82.52784729 -0.28633118 C84.80378487 -0.29089238 87.07971589 -0.30134725 89.35560608 -0.31672668 C114.61565313 -0.47866468 139.40113062 1.28369044 158.7109375 19.58203125 C169.31967096 30.78818486 173.37286495 42.67126778 173.1484375 57.88671875 C172.64148146 75.45149907 167.5923744 91.37995005 155 104 C148.27804107 110.06058551 140.9114369 114.65006906 133 119 C135.6342426 124.26848519 138.98801271 128.49417558 142.80664062 132.96850586 C146.33340049 137.13020937 149.62923915 141.42908251 152.875 145.8125 C156.86056611 151.18730592 160.92517951 156.47821109 165.125 161.6875 C169.5908093 167.22671076 173.9695099 172.8180963 178.2890625 178.47265625 C180.34800684 181.16241611 182.43163309 183.83181317 184.5234375 186.49609375 C185.13977051 187.28266357 185.75610352 188.0692334 186.39111328 188.87963867 C187.59264261 190.41177004 188.79658114 191.94201647 190.00341797 193.4699707 C190.56432129 194.18628662 191.12522461 194.90260254 191.703125 195.640625 C192.19458008 196.26485352 192.68603516 196.88908203 193.19238281 197.53222656 C195.92717568 201.26578766 198.45350861 205.13642507 201 209 C192.67259011 209.49073599 184.35137304 209.86159123 176.01300049 210.08805561 C172.13850457 210.19687942 168.27400563 210.34370964 164.40527344 210.58422852 C139.56880915 212.08802173 139.56880915 212.08802173 132.06469727 207.01605225 C127.13670719 202.21222433 123.68983916 196.72029068 120.47624207 190.67312622 C118.17965703 186.51455235 115.34451657 182.79390711 112.5 179 C111.44888356 177.53856795 110.40036655 176.07525971 109.35546875 174.609375 C104.94777355 168.50620847 100.34548849 162.55166736 95.76342773 156.57910156 C90.94671789 150.28553421 86.27837336 143.90620917 81.72265625 137.421875 C80.21364037 135.15818774 80.21364037 135.15818774 79 134 C70.75 133.67 62.5 133.34 54 133 C54 158.08 54 183.16 54 209 C36.18 209 18.36 209 0 209 C0 140.03 0 71.06 0 0 Z " fill="#FDFDFD" transform="translate(1424,202)"/>
<path d="M0 0 C4.87698744 5.51754698 4.68058178 12.64470087 4.37890625 19.65625 C1.56833784 58.84561773 -27.56191573 94.22186269 -55.65234375 119.375 C-61.15062165 123.93759041 -67.04197305 127.57963642 -73.21484375 131.140625 C-75.89396762 132.9292126 -77.17839652 134.41198813 -79 137 C-60.47383901 134.35750958 -60.47383901 134.35750958 -43 128 C-48.23684045 145.29194347 -61.55790224 161.33424927 -73 175 C-73.78632813 175.97066406 -74.57265625 176.94132813 -75.3828125 177.94140625 C-81.85092348 185.80870243 -88.88346542 193.09676496 -96.0625 200.3125 C-97.42689209 201.69066895 -97.42689209 201.69066895 -98.81884766 203.09667969 C-104.90531455 209.15579414 -111.27766066 214.66142047 -118 220 C-119.62587223 221.3322696 -121.25099862 222.66545052 -122.875 224 C-135.41478374 233.91334085 -146.87548528 241.06475501 -162.625 244.5625 C-169.40479724 246.15774641 -172.02113441 249.30895205 -175.61328125 255.0703125 C-180.14210412 262.67314955 -183.66084037 270.76478578 -187.3125 278.8125 C-188.07230654 280.47298653 -188.83248124 282.13330464 -189.59301758 283.79345703 C-193.97052523 293.37665423 -198.29184604 302.98344266 -202.13598633 312.79614258 C-205.97694575 322.22846366 -212.50059564 327.51292978 -220.625 333.375 C-221.470625 334.00277344 -222.31625 334.63054687 -223.1875 335.27734375 C-230.02234769 340.26872306 -230.02234769 340.26872306 -234 341 C-233.49756583 333.71095496 -231.73257921 327.57723249 -229.1875 320.75 C-228.5989624 319.14427124 -228.5989624 319.14427124 -227.99853516 317.50610352 C-223.04921168 304.18166563 -217.55331705 291.08150951 -212 278 C-211.64131836 277.14986328 -211.28263672 276.29972656 -210.91308594 275.42382812 C-207.37438944 267.05435722 -203.53576402 258.86215426 -199.41015625 250.765625 C-197.52648426 247.0646588 -195.69372068 243.34077156 -193.87109375 239.609375 C-186.64440726 224.87528411 -178.961935 210.56921446 -170.49560547 196.49609375 C-169.22922836 194.38257113 -167.98409195 192.25968359 -166.75390625 190.125 C-146.48206332 155.35068854 -122.11097732 121.77142233 -94.921875 92.1015625 C-93.18256911 90.19963858 -91.49236869 88.26680268 -89.8125 86.3125 C-86.20982007 82.19150999 -82.51972238 78.15181871 -78.8125 74.125 C-78.20575439 73.45766846 -77.59900879 72.79033691 -76.97387695 72.1027832 C-76.39081787 71.47331787 -75.80775879 70.84385254 -75.20703125 70.1953125 C-74.6860083 69.62828613 -74.16498535 69.06125977 -73.62817383 68.47705078 C-72 67 -72 67 -69.86206055 65.98779297 C-67.64550254 65.08629107 -67.64550254 65.08629107 -67 62 C-66.34 61.34 -65.68 60.68 -65 60 C-74.22152966 66.11247056 -82.67903093 72.72192572 -91 80 C-91.73992187 80.639375 -92.47984375 81.27875 -93.2421875 81.9375 C-95.17296568 83.61239191 -97.08770952 85.30404945 -99 87 C-99.73089844 87.63808594 -100.46179688 88.27617187 -101.21484375 88.93359375 C-112.41019414 98.82251751 -122.7531688 109.26243986 -132 121 C-132.97894253 122.19243172 -133.96091674 123.38237863 -134.9453125 124.5703125 C-153.97685158 147.58289426 -170.08226427 172.16258166 -185 198 C-185.6499292 199.12196777 -185.6499292 199.12196777 -186.31298828 200.26660156 C-191.93061789 209.9936518 -197.06272767 219.91233568 -202 230 C-202.66496653 231.33418205 -203.33064381 232.66801482 -204 234 C-204.66 234 -205.32 234 -206 234 C-213.20931024 214.57685833 -213.39925319 195.97615186 -209 176 C-208.73316406 174.76636719 -208.46632812 173.53273438 -208.19140625 172.26171875 C-200.24797816 139.39357853 -180.06140469 110.9822328 -158 86 C-157.15953125 85.04738281 -156.3190625 84.09476562 -155.453125 83.11328125 C-149.17744827 76.12501155 -142.57185956 69.4468884 -135.95690918 62.78167725 C-134.96114564 61.77787368 -133.96686706 60.77259438 -132.97424316 59.76568604 C-126.33407975 53.04013218 -119.4242685 46.85390503 -112 41 C-110.77305693 40.01088856 -109.54643843 39.0213742 -108.3203125 38.03125 C-86.9076665 20.98726665 -28.25132658 -22.95420285 0 0 Z " fill="#FDD440" transform="translate(431,153)"/>
<path d="M0 0 C134.77831197 0 134.77831197 0 155.890625 20.72265625 C170.35426135 36.3380266 172.88083862 52.0030948 172.50390625 72.734375 C171.69909419 89.81701531 164.58492161 106.61515191 151.95703125 118.359375 C128.53061659 137.99828549 104.94530886 141.5570471 75.375 141.1875 C68.32125 141.125625 61.2675 141.06375 54 141 C54 163.44 54 185.88 54 209 C36.18 209 18.36 209 0 209 C0 140.03 0 71.06 0 0 Z " fill="#FEFEFE" transform="translate(1001,202)"/>
<path d="M0 0 C17.4075 -0.04125 34.815 -0.0825 52.75 -0.125 C58.2269043 -0.14320801 63.70380859 -0.16141602 69.34667969 -0.18017578 C76.08447266 -0.18920898 76.08447266 -0.18920898 79.24835205 -0.19088745 C81.43699967 -0.19393922 83.62564413 -0.20093273 85.81427002 -0.21115112 C89.14804846 -0.22592498 92.48162312 -0.22780751 95.81542969 -0.22705078 C96.77466717 -0.234247 97.73390465 -0.24144321 98.72220993 -0.2488575 C108.82897367 -0.21842545 118.51349248 1.45686769 128.0625 4.75 C129.21890991 5.14687012 129.21890991 5.14687012 130.39868164 5.55175781 C146.38309124 11.20455584 159.55975758 21.03850582 167.2421875 36.5 C171.20999496 45.76787145 172.33415417 54.98565328 172.25 65 C172.25773438 65.92039062 172.26546875 66.84078125 172.2734375 67.7890625 C172.22280146 85.76485623 165.65262859 104.02398154 153 117 C130.68820568 137.62788532 104.91458955 141.36353679 75.6875 141.125 C68.530625 141.08375 61.37375 141.0425 54 141 C54 163.44 54 185.88 54 209 C36.18 209 18.36 209 0 209 C0 140.03 0 71.06 0 0 Z " fill="#FDFEFE" transform="translate(567,202)"/>
<path d="M0 0 C20.79 0 41.58 0 63 0 C71.04645615 20.69088725 71.04645615 20.69088725 74.3203125 29.56640625 C74.69686478 30.58353699 75.07341705 31.60066772 75.46138 32.64862061 C76.6840902 35.95269324 77.90460481 39.25757167 79.125 42.5625 C80.00259705 44.93582374 80.8802847 47.30911398 81.75805664 49.68237305 C92.72127099 79.33346634 103.64485753 108.99924227 114.5564146 138.66937923 C116.45493993 143.83166584 118.35424324 148.99366584 120.2540102 154.15549564 C121.37794419 157.20950078 122.50128053 160.26372362 123.62374878 163.31826782 C124.86916219 166.70737528 126.11577856 170.09603606 127.36328125 173.484375 C127.94936409 175.07671211 127.94936409 175.07671211 128.54728699 176.70121765 C131.50975203 184.72661382 134.54410736 192.72334359 137.64900208 200.69476318 C137.95972153 201.49964172 138.27044098 202.30452026 138.59057617 203.13378906 C138.86407394 203.836026 139.13757172 204.53826294 139.4193573 205.26177979 C140 207 140 207 140 209 C121.52 209 103.04 209 84 209 C81.69 202.44125 79.38 195.8825 77 189.125 C76.26910156 187.05492676 75.53820312 184.98485352 74.78515625 182.85205078 C74.21069009 181.21655824 73.63645533 179.58098438 73.0625 177.9453125 C72.76021484 177.09187256 72.45792969 176.23843262 72.14648438 175.35913086 C71.86224609 174.54726318 71.57800781 173.73539551 71.28515625 172.89892578 C71.03644775 172.1927713 70.78773926 171.48661682 70.53149414 170.75906372 C70 169 70 169 70 167 C44.26 167.33 18.52 167.66 -8 168 C-12.62 181.53 -17.24 195.06 -22 209 C-40.15 209 -58.3 209 -77 209 C-68.95402078 186.01148794 -68.95402078 186.01148794 -65.42578125 176.4765625 C-65.02425339 175.3873349 -64.62272552 174.2981073 -64.20903015 173.1758728 C-62.91181751 169.65831097 -61.61221064 166.14163952 -60.3125 162.625 C-59.61995861 160.74834911 -58.92741916 158.87169749 -58.23504829 156.99498367 C-51.02529067 137.45280076 -43.79032163 117.91993699 -36.54907227 98.3894043 C-32.13904326 86.49240796 -27.7409027 74.59111303 -23.359375 62.68359375 C-22.88431991 61.39279106 -22.40926295 60.10198905 -21.9342041 58.81118774 C-19.67175992 52.66320586 -17.41095268 46.51462656 -15.15234375 40.36523438 C-14.32555502 38.11717493 -13.49873367 35.86912747 -12.671875 33.62109375 C-12.31736267 32.65425156 -11.96285034 31.68740936 -11.59759521 30.69126892 C-7.8193421 20.42577508 -3.89510153 10.22464151 0 0 Z " fill="#FDFDFD" transform="translate(831,202)"/>
<path d="M0 0 C17.82 0 35.64 0 54 0 C54.01458252 4.21370361 54.02916504 8.42740723 54.04418945 12.76879883 C54.09457584 26.70674526 54.16102937 40.64458109 54.23571491 54.58241749 C54.28059619 63.03108786 54.32002836 71.47971681 54.34643555 79.9284668 C54.36947793 87.29618341 54.40294513 94.66376806 54.44870156 102.03137988 C54.47255003 105.92905428 54.49133346 109.82659867 54.49761391 113.72434425 C54.50370298 117.40078543 54.52383876 121.07689431 54.55427551 124.75321198 C54.56712022 126.72987998 54.56549631 128.70662586 54.5632782 130.68333435 C54.68367891 142.22120397 56.6564521 153.6174289 64.25 162.6875 C72.91442976 169.97349775 80.49965834 172.35050791 91.75 172.3125 C93.15765625 172.33666992 93.15765625 172.33666992 94.59375 172.36132812 C104.97277267 172.36849596 114.77631562 169.85091161 122.5 162.58984375 C131.34492687 152.71827359 131.29781966 139.40569304 131.31884766 126.92138672 C131.32816498 125.530761 131.33833629 124.14014078 131.34928894 122.74952698 C131.37639988 119.00438241 131.39168168 115.25927504 131.40471697 111.51405859 C131.42043102 107.5889294 131.4471945 103.66387529 131.4727478 99.73880005 C131.51938997 92.31951636 131.55620418 84.90021831 131.58942068 77.48086369 C131.62774545 69.02850901 131.67712822 60.57623 131.72740483 52.12393928 C131.83050793 34.74934197 131.91837873 17.37471242 132 0 C149.82 0 167.64 0 186 0 C186.0679071 18.64659439 186.12309197 37.29308755 186.15543652 55.93977451 C186.17085857 64.59913648 186.19185813 73.25841575 186.22631836 81.91772461 C186.25636433 89.47144838 186.27560881 97.02511221 186.28226548 104.57889408 C186.2861522 108.57288505 186.29518736 112.56670467 186.31719017 116.56064034 C186.33779648 120.33221484 186.34378598 124.10355002 186.33932304 127.87517548 C186.34052128 129.89408448 186.35653541 131.91296839 186.3732605 133.93180847 C186.30131526 155.57599261 179.78768161 175.50936474 164.75390625 191.39453125 C146.08970765 209.0527163 119.17650125 213.44827937 94.4375 213.3125 C93.39675827 213.30976578 93.39675827 213.30976578 92.33499146 213.30697632 C65.38665025 213.18842447 39.53398205 208.92943575 19.40234375 189.56640625 C4.15943059 173.28251366 -0.17336191 152.50461808 -0.11352539 130.89477539 C-0.11324301 129.46518964 -0.11340224 128.03560374 -0.1139679 126.60601807 C-0.1142539 122.74084056 -0.10838899 118.8756943 -0.10139394 115.01052403 C-0.09512763 110.96530521 -0.09455401 106.9200856 -0.09336853 102.87486267 C-0.09026486 95.22169837 -0.0820645 87.56854842 -0.07201904 79.91539043 C-0.06082792 71.19955552 -0.0553399 62.48371992 -0.05032361 53.76787961 C-0.03988106 35.84524329 -0.0215476 17.92262664 0 0 Z " fill="#FEFEFE" transform="translate(1646,202)"/>
<path d="M0 0 C1.13236084 0.02102783 1.13236084 0.02102783 2.28759766 0.04248047 C22.61972097 0.53615155 46.74369984 4.87184992 65 14 C65 29.84 65 45.68 65 62 C58.30160055 62 56.47921373 61.54864159 51.5625 57.9375 C29.0741671 42.49241771 1.57275412 36.8611735 -25.37890625 40.5 C-33.53404962 42.04833359 -39.81811485 44.49176766 -45.4375 50.6875 C-48.42794004 55.11335126 -48.63010947 58.73725468 -48 64 C-45.19431067 69.71928979 -41.05014366 72.84376348 -35.125 75.08984375 C-23.37201991 78.2778396 -11.49461069 80.89051737 0.39111328 83.53125 C24.19141497 88.84905688 51.00670928 95.4975429 65.75 116.625 C73.87109835 131.08451657 75.33692607 147.35807115 71.9375 163.5 C66.60034155 180.81502097 54.66155894 194.21424743 39 203 C9.80826365 218.34917864 -23.84927779 220.12078035 -56 215 C-57.33322431 214.81431965 -58.66655976 214.62943579 -60 214.4453125 C-75.90568285 212.09270346 -91.11652305 206.95339078 -106 201 C-106 184.17 -106 167.34 -106 150 C-99.59882877 150 -98.83638789 150.36275209 -94.0625 154 C-68.05008232 172.97522371 -36.58457288 180.18417999 -4.6875 176.375 C2.47824891 175.04161433 10.21372483 171.69299189 15 166 C16.79751355 160.60745935 17.33857002 154.16130368 15.08203125 148.83203125 C5.94761798 136.69745878 -16.7115917 135.16458569 -30.63964844 132.53442383 C-50.32908233 128.79575234 -70.37122607 123.14419961 -86 110 C-86.845625 109.4225 -87.69125 108.845 -88.5625 108.25 C-98.56775573 99.01437932 -103.71510231 86.0516993 -104.2734375 72.65625 C-104.68401292 55.09702277 -102.68065634 42.83116478 -91 29 C-90.47921875 28.36707031 -89.9584375 27.73414063 -89.421875 27.08203125 C-66.95011296 2.28364739 -31.06137447 -0.65517266 0 0 Z " fill="#FDFDFD" transform="translate(1977,198)"/>
<path d="M0 0 C7.77898107 -0.3957642 15.55556831 -0.69681138 23.3421154 -0.88080692 C26.95958095 -0.96918777 30.57011975 -1.08867717 34.18359375 -1.2824707 C57.36235714 -2.49261272 57.36235714 -2.49261272 63.20651245 1.51196289 C66.73480385 5.39718763 68.54373054 9.86576045 70.20751953 14.78799438 C71.37266275 18.04019231 73.0359722 20.78751916 74.80078125 23.7578125 C75.9733437 25.87910982 77.14390265 28.00151577 78.3125 30.125 C83.69196689 39.85658833 89.11781123 49.55998212 94.61254883 59.22705078 C95.10263428 60.09056152 95.59271973 60.95407227 96.09765625 61.84375 C96.57219238 62.6790625 97.04672852 63.514375 97.53564453 64.375 C99.65351549 68.17149026 101.68042896 72.01614861 103.70092773 75.86523438 C104.82121135 78.13210255 104.82121135 78.13210255 107 79 C107.25797363 78.31349365 107.51594727 77.6269873 107.78173828 76.91967773 C109.16650264 73.60096091 110.79731256 70.45191155 112.4921875 67.28515625 C112.83415161 66.64156662 113.17611572 65.99797699 113.52844238 65.33488464 C114.64124837 63.24263181 115.75794595 61.15248746 116.875 59.0625 C117.64933227 57.60974368 118.42358296 56.15694386 119.19775391 54.70410156 C128.97159151 36.38055141 138.99169591 18.19691652 149 0 C168.47 0 187.94 0 208 0 C206.5751608 4.2745176 205.60055034 6.98967624 203.33984375 10.6328125 C202.80270752 11.50607178 202.26557129 12.37933105 201.7121582 13.27905273 C201.126521 14.21821533 200.54088379 15.15737793 199.9375 16.125 C198.65853721 18.20162774 197.37990562 20.27845949 196.1015625 22.35546875 C195.42899414 23.4439209 194.75642578 24.53237305 194.06347656 25.65380859 C190.62250921 31.23377766 187.21583614 36.83452732 183.8125 42.4375 C183.46113983 43.01542297 183.10977966 43.59334595 182.74777222 44.18878174 C176.52844489 54.42210874 170.40617762 64.71143252 164.30645752 75.01638794 C156.61625444 88.0054559 148.80586429 100.91878725 140.94018555 113.80224609 C140.29992432 114.85750488 139.65966309 115.91276367 139 117 C138.49400269 117.63773346 137.98800537 118.27546692 137.4666748 118.93252563 C131.39422517 127.2778032 132.14020873 136.02973353 132.1953125 145.9140625 C132.1840473 147.73824814 132.17016011 149.5624193 132.15377808 151.38656616 C132.11789975 156.15746732 132.11734621 160.92772556 132.12445068 165.69873047 C132.12552829 171.43924754 132.08219894 177.17958472 132.04641724 182.91996765 C131.99714619 191.61364334 132.00386244 200.30565209 132 209 C114.18 209 96.36 209 78 209 C78.10183594 203.58722656 78.20367188 198.17445313 78.30859375 192.59765625 C78.33973663 189.11095448 78.366304 185.6253514 78.37695312 182.13867188 C78.3941752 176.63695154 78.42577618 171.13872611 78.55883789 165.63842773 C79.09449325 142.5554898 78.34604417 126.23529639 63.80130005 107.37088013 C61.41515633 104.23022583 59.46787416 100.96681549 57.484375 97.55859375 C56.23988565 95.51804476 54.99509857 93.47767732 53.75 91.4375 C47.18746831 80.66474897 40.72844553 69.83308396 34.30316162 58.97802734 C28.55090361 49.26265848 22.74372885 39.58295802 16.875 29.9375 C16.52067902 29.35478333 16.16635803 28.77206665 15.80130005 28.17169189 C13.00328116 23.57014487 10.20392347 18.96942394 7.39501953 14.37451172 C6.07224472 12.21017308 4.7542451 10.04300974 3.4375 7.875 C2.75558594 6.75867188 2.07367187 5.64234375 1.37109375 4.4921875 C0 2 0 2 0 0 Z " fill="#FEFEFE" transform="translate(1187,202)"/>
<path d="M0 0 C5.589375 -0.04125 11.17875 -0.0825 16.9375 -0.125 C19.55546509 -0.15231201 19.55546509 -0.15231201 22.22631836 -0.18017578 C34.33930661 -0.25524272 45.60575216 0.17894967 55.015625 8.859375 C62.13096231 16.57263982 63.64748673 22.70449629 63.41015625 33.13671875 C62.53752692 41.35605601 59.38557897 48.94788531 53.15625 54.53515625 C44.57318319 60.36604403 35.38957123 62.17414632 25.1953125 62.09765625 C24.55263428 62.09664917 23.90995605 62.09564209 23.24780273 62.09460449 C20.8735167 62.08941801 18.49925634 62.07545716 16.125 62.0625 C10.80375 62.041875 5.4825 62.02125 0 62 C0 41.54 0 21.08 0 0 Z " fill="#070C1A" transform="translate(1055,241)"/>
<path d="M0 0 C5.506875 -0.0825 11.01375 -0.165 16.6875 -0.25 C19.25084106 -0.30462402 19.25084106 -0.30462402 21.8659668 -0.36035156 C33.56228397 -0.50514985 44.9945511 0.54473612 54.34765625 8.35546875 C60.92107177 14.89780429 62.23720567 20.56272281 62.3125 29.625 C62.32067211 38.71692275 61.13762585 45.75948251 55 52.8125 C46.80556395 60.29899341 35.89994228 62.17797576 25.1953125 62.09765625 C24.55263428 62.09664917 23.90995605 62.09564209 23.24780273 62.09460449 C20.8735167 62.08941801 18.49925634 62.07545716 16.125 62.0625 C10.80375 62.041875 5.4825 62.02125 0 62 C0 41.54 0 21.08 0 0 Z " fill="#070C1A" transform="translate(621,241)"/>
<path d="M0 0 C10.333125 -0.12375 10.333125 -0.12375 20.875 -0.25 C23.0288623 -0.28641602 25.18272461 -0.32283203 27.40185547 -0.36035156 C29.14028939 -0.3720518 30.87873442 -0.38224045 32.6171875 -0.390625 C33.4944751 -0.41108887 34.3717627 -0.43155273 35.27563477 -0.45263672 C43.01528589 -0.45692818 50.09916163 1.58405007 56.375 6.25 C62.45487386 12.61939166 63.5779752 18.35200246 63.47485352 27.0612793 C63.23133006 32.8174722 62.11761676 37.18374819 59 42 C58.34 43.051875 57.68 44.10375 57 45.1875 C51.4723116 51.33319083 42.94782927 54.10422704 35 55 C32.21848651 55.11946536 29.44381387 55.11743827 26.66015625 55.09765625 C25.9791687 55.09664917 25.29818115 55.09564209 24.59655762 55.09460449 C22.08518762 55.08942526 19.57384188 55.07546458 17.0625 55.0625 C11.431875 55.041875 5.80125 55.02125 0 55 C0 36.85 0 18.7 0 0 Z " fill="#070C19" transform="translate(1478,241)"/>
<path d="M0 0 C0.66 0 1.32 0 2 0 C2.45101074 1.36874268 2.45101074 1.36874268 2.91113281 2.76513672 C4.35305816 7.13653922 5.80062625 11.50606199 7.25 15.875 C7.51478149 16.67356415 7.77956299 17.4721283 8.05236816 18.29489136 C12.63184165 32.08650146 17.40573779 45.8019152 22.34082031 59.47021484 C22.82618479 60.82519069 23.31153704 62.18017091 23.796875 63.53515625 C24.22323242 64.714729 24.64958984 65.89430176 25.08886719 67.10961914 C26 70 26 70 26 73 C9.5 73 -7 73 -24 73 C-23.30838678 68.85032069 -22.63999156 65.56142697 -21.31347656 61.67578125 C-20.96931702 60.66032227 -20.62515747 59.64486328 -20.27056885 58.59863281 C-19.71124664 56.97199707 -19.71124664 56.97199707 -19.140625 55.3125 C-18.75436951 54.17780273 -18.36811401 53.04310547 -17.97015381 51.87402344 C-16.73444997 48.24784888 -15.49219599 44.62395501 -14.25 41 C-13.42928322 38.5925857 -12.60896658 36.18503495 -11.7890625 33.77734375 C-7.93972704 22.48938034 -4.07624822 11.20838773 0 0 Z " fill="#080D1B" transform="translate(861,257)"/>
<path d="M0 0 C0.66 0.33 1.32 0.66 2 1 C1.113125 1.721875 0.22625 2.44375 -0.6875 3.1875 C-3.62966524 5.64273346 -6.32048415 8.25668615 -9 11 C-9.63164062 11.62132812 -10.26328125 12.24265625 -10.9140625 12.8828125 C-14.85200079 16.76175546 -18.54666492 20.68333115 -22 25 C-23.5625 23.75 -23.5625 23.75 -25 22 C-24.74948707 19.43044375 -24.26981514 18.27070019 -22.43701172 16.43188477 C-21.77459473 15.94002686 -21.11217773 15.44816895 -20.4296875 14.94140625 C-19.6975 14.39033203 -18.9653125 13.83925781 -18.2109375 13.27148438 C-17.44007813 12.70751953 -16.66921875 12.14355469 -15.875 11.5625 C-15.12734375 11.00240234 -14.3796875 10.44230469 -13.609375 9.86523438 C-9.11850414 6.51272886 -4.57041155 3.24293127 0 0 Z " fill="#0C0B16" transform="translate(368,210)"/>
<path d="M0 0 C0.66 0.33 1.32 0.66 2 1 C1.071875 1.763125 0.14375 2.52625 -0.8125 3.3125 C-2.98276101 5.11848552 -5.05568065 6.9476629 -7 9 C-7.99 8.67 -8.98 8.34 -10 8 C-6.66666667 5.33333333 -3.33333333 2.66666667 0 0 Z " fill="#211B16" transform="translate(368,210)"/>
<path d="M0 0 C0.99 0.33 1.98 0.66 3 1 C0.03716687 3.38672669 -2.94270509 5.7353371 -6 8 C-6 6.68 -6 5.36 -6 4 C-3.1875 1.6875 -3.1875 1.6875 0 0 Z " fill="#101118" transform="translate(369,276)"/>
<path d="M0 0 C0.33 0.66 0.66 1.32 1 2 C-0.25 4 -0.25 4 -2 6 C-3.32 6 -4.64 6 -6 6 C-6 5.01 -6 4.02 -6 3 C-4.02 2.01 -2.04 1.02 0 0 Z " fill="#F4DE46" transform="translate(387,281)"/>
<path d="M0 0 C2 3 2 3 2 6 C0.02 6 -1.96 6 -4 6 C-2.84826645 3.53199953 -1.95216435 1.95216435 0 0 Z " fill="#17131A" transform="translate(356,284)"/>
<path d="M0 0 C0 3 0 3 -1 6 C-2.32303717 6.3721042 -3.65737935 6.70630173 -5 7 C-5.33 7.66 -5.66 8.32 -6 9 C-6 6 -6 6 -4.6875 4.39453125 C-4.130625 3.87246094 -3.57375 3.35039062 -3 2.8125 C-2.443125 2.28269531 -1.88625 1.75289063 -1.3125 1.20703125 C-0.6628125 0.60955078 -0.6628125 0.60955078 0 0 Z " fill="#1C1919" transform="translate(338,349)"/>
</svg>
