<?xml version="1.0" encoding="UTF-8"?>
<svg version="1.1" xmlns="http://www.w3.org/2000/svg" width="2051" height="649">
<path d="M0 0 C676.83 0 1353.66 0 2051 0 C2051 214.17 2051 428.34 2051 649 C1374.17 649 697.34 649 0 649 C0 434.83 0 220.66 0 0 Z " fill="#050A18" transform="translate(0,0)"/>
<path d="M0 0 C4.87698744 5.51754698 4.68058178 12.64470087 4.37890625 19.65625 C1.56833784 58.84561773 -27.56191573 94.22186269 -55.65234375 119.375 C-61.15062165 123.93759041 -67.04197305 127.57963642 -73.21484375 131.140625 C-75.89396762 132.9292126 -77.17839652 134.41198813 -79 137 C-60.47383901 134.35750958 -60.47383901 134.35750958 -43 128 C-48.23684045 145.29194347 -61.55790224 161.33424927 -73 175 C-73.78632813 175.97066406 -74.57265625 176.94132813 -75.3828125 177.94140625 C-81.85092348 185.80870243 -88.88346542 193.09676496 -96.0625 200.3125 C-97.42689209 201.69066895 -97.42689209 201.69066895 -98.81884766 203.09667969 C-104.90531455 209.15579414 -111.27766066 214.66142047 -118 220 C-119.62587223 221.3322696 -121.25099862 222.66545052 -122.875 224 C-135.41478374 233.91334085 -146.87548528 241.06475501 -162.625 244.5625 C-169.40479724 246.15774641 -172.02113441 249.30895205 -175.61328125 255.0703125 C-180.14210412 262.67314955 -183.66084037 270.76478578 -187.3125 278.8125 C-188.07230654 280.47298653 -188.83248124 282.13330464 -189.59301758 283.79345703 C-193.97052523 293.37665423 -198.29184604 302.98344266 -202.13598633 312.79614258 C-205.97694575 322.22846366 -212.50059564 327.51292978 -220.625 333.375 C-221.470625 334.00277344 -222.31625 334.63054687 -223.1875 335.27734375 C-230.02234769 340.26872306 -230.02234769 340.26872306 -234 341 C-233.49756583 333.71095496 -231.73257921 327.57723249 -229.1875 320.75 C-228.5989624 319.14427124 -228.5989624 319.14427124 -227.99853516 317.50610352 C-223.04921168 304.18166563 -217.55331705 291.08150951 -212 278 C-211.64131836 277.14986328 -211.28263672 276.29972656 -210.91308594 275.42382812 C-207.37438944 267.05435722 -203.53576402 258.86215426 -199.41015625 250.765625 C-197.52648426 247.0646588 -195.69372068 243.34077156 -193.87109375 239.609375 C-186.64440726 224.87528411 -178.961935 210.56921446 -170.49560547 196.49609375 C-169.22922836 194.38257113 -167.98409195 192.25968359 -166.75390625 190.125 C-146.48206332 155.35068854 -122.11097732 121.77142233 -94.921875 92.1015625 C-93.18256911 90.19963858 -91.49236869 88.26680268 -89.8125 86.3125 C-86.20982007 82.19150999 -82.51972238 78.15181871 -78.8125 74.125 C-78.20575439 73.45766846 -77.59900879 72.79033691 -76.97387695 72.1027832 C-76.39081787 71.47331787 -75.80775879 70.84385254 -75.20703125 70.1953125 C-74.6860083 69.62828613 -74.16498535 69.06125977 -73.62817383 68.47705078 C-72 67 -72 67 -69.86206055 65.98779297 C-67.64550254 65.08629107 -67.64550254 65.08629107 -67 62 C-66.34 61.34 -65.68 60.68 -65 60 C-74.22152966 66.11247056 -82.67903093 72.72192572 -91 80 C-91.73992187 80.639375 -92.47984375 81.27875 -93.2421875 81.9375 C-95.17296568 83.61239191 -97.08770952 85.30404945 -99 87 C-99.73089844 87.63808594 -100.46179688 88.27617187 -101.21484375 88.93359375 C-112.41019414 98.82251751 -122.7531688 109.26243986 -132 121 C-132.97894253 122.19243172 -133.96091674 123.38237863 -134.9453125 124.5703125 C-153.97685158 147.58289426 -170.08226427 172.16258166 -185 198 C-185.6499292 199.12196777 -185.6499292 199.12196777 -186.31298828 200.26660156 C-191.93061789 209.9936518 -197.06272767 219.91233568 -202 230 C-202.66496653 231.33418205 -203.33064381 232.66801482 -204 234 C-204.66 234 -205.32 234 -206 234 C-213.20931024 214.57685833 -213.39925319 195.97615186 -209 176 C-208.73316406 174.76636719 -208.46632812 173.53273438 -208.19140625 172.26171875 C-200.24797816 139.39357853 -180.06140469 110.9822328 -158 86 C-157.15953125 85.04738281 -156.3190625 84.09476562 -155.453125 83.11328125 C-149.17744827 76.12501155 -142.57185956 69.4468884 -135.95690918 62.78167725 C-134.96114564 61.77787368 -133.96686706 60.77259438 -132.97424316 59.76568604 C-126.33407975 53.04013218 -119.4242685 46.85390503 -112 41 C-110.77305693 40.01088856 -109.54643843 39.0213742 -108.3203125 38.03125 C-86.9076665 20.98726665 -28.25132658 -22.95420285 0 0 Z " fill="#FDD440" transform="translate(431,153)"/>
<path d="M0 0 C14.78145661 11.50443557 23.06719708 26.82055339 27 45 C27.20496094 45.89976562 27.40992188 46.79953125 27.62109375 47.7265625 C32.62510121 73.88544289 28.93463445 103.53339622 14 126 C2.90281863 141.5600738 -12.16750895 151.81149404 -31.109375 155.50390625 C-44.94063446 157.2675307 -58.78955578 156.63328954 -71.8125 151.5625 C-72.64458984 151.24990234 -73.47667969 150.93730469 -74.33398438 150.61523438 C-78.00949823 149.22107395 -81.47471124 147.76264438 -85 146 C-85 167.45 -85 188.9 -85 211 C-101.83 211 -118.66 211 -136 211 C-136 139.72 -136 68.44 -136 -5 C-119.17 -5 -102.34 -5 -85 -5 C-84.505 2.425 -84.505 2.425 -84 10 C-83.05640625 9.34773438 -82.1128125 8.69546875 -81.140625 8.0234375 C-57.73111633 -7.99278778 -25.66907652 -18.58631282 0 0 Z " fill="#FDFDFE" transform="translate(1103,259)"/>
<path d="M0 0 C25.9565625 -0.0928125 25.9565625 -0.0928125 52.4375 -0.1875 C57.86888428 -0.21481201 63.30026855 -0.24212402 68.89624023 -0.27026367 C75.6114502 -0.28381348 75.6114502 -0.28381348 78.77113342 -0.28633118 C80.9429052 -0.29088943 83.11467017 -0.30133786 85.28639221 -0.31672668 C111.84170832 -0.49522668 136.49130503 2.60781037 156.6796875 21.59375 C170.80148004 36.2385719 172.49713288 52.91582043 172.26953125 72.296875 C172.05851556 79.83522874 171.03343596 86.02991399 168 93 C167.72091797 93.65000977 167.44183594 94.30001953 167.15429688 94.96972656 C158.65496248 114.37744237 144.40850693 126.81305951 125 135 C108.67222805 141.13493434 92.88204462 141.26533322 75.6875 141.125 C68.530625 141.08375 61.37375 141.0425 54 141 C54 163.44 54 185.88 54 209 C36.18 209 18.36 209 0 209 C0 140.03 0 71.06 0 0 Z " fill="#FDFDFE" transform="translate(567,203)"/>
<path d="M0 0 C10.01981197 9.20403967 15.33719317 21.12853101 16.16292953 34.67239761 C16.42385322 42.58840746 16.34406577 50.50692614 16.29296875 58.42578125 C16.2873654 60.98552704 16.2830988 63.54527607 16.28010559 66.10502625 C16.26987524 72.12185916 16.24630323 78.13849258 16.21605712 84.15524596 C16.17902132 91.6887516 16.16276641 99.2222852 16.14648438 106.75585938 C16.117401 120.1707022 16.05728295 133.58518224 16 147 C-0.83 147 -17.66 147 -35 147 C-35.495 139.575 -35.495 139.575 -36 132 C-37.52367187 133.10408203 -37.52367187 133.10408203 -39.078125 134.23046875 C-58.16764681 147.85452581 -78.49067234 154.17301431 -102.09521484 150.69091797 C-115.31256954 147.96529544 -127.41728013 139.763628 -134.8125 128.5625 C-142.15136812 116.34219796 -143.88663515 102.41058917 -141.3515625 88.421875 C-137.80290036 75.62242695 -129.98891639 65.61597594 -118.53515625 58.90234375 C-100.02315949 48.71329532 -79.32364052 46.45914555 -58.6015625 44.56738281 C-56.47348926 44.37257313 -54.34612897 44.17098712 -52.21875 43.96875 C-50.84378686 43.84074929 -49.46878807 43.7131308 -48.09375 43.5859375 C-46.26360352 43.41650635 -46.26360352 43.41650635 -44.39648438 43.24365234 C-41.24910819 43.01787018 -38.1539292 42.9548234 -35 43 C-35.82227535 35.60838367 -35.82227535 35.60838367 -39.0625 29.0625 C-54.71339525 18.07357355 -77.26216849 19.06833806 -95.375 22.0625 C-102.53914794 23.63418741 -109.41030433 26.06987902 -116.26513672 28.66235352 C-117.06838379 28.96326904 -117.87163086 29.26418457 -118.69921875 29.57421875 C-119.40908936 29.84838623 -120.11895996 30.12255371 -120.8503418 30.4050293 C-123 31 -123 31 -128 31 C-128 18.13 -128 5.26 -128 -8 C-122.26702895 -9.19608749 -116.5414875 -10.36765842 -110.79052734 -11.46533203 C-109.06013929 -11.7968762 -107.33100078 -12.13510867 -105.60400391 -12.48388672 C-73.98717421 -18.74202129 -26.82619684 -20.75779324 0 0 Z " fill="#FCFCFC" transform="translate(905,265)"/>
<path d="M0 0 C16.83 0 33.66 0 51 0 C51.04898437 6.71859375 51.09796875 13.4371875 51.1484375 20.359375 C51.1838531 24.63412898 51.21982984 28.90886368 51.2578125 33.18359375 C51.31795116 39.9578159 51.37609333 46.73201128 51.421875 53.50634766 C51.45894564 58.97238552 51.50536277 64.43827371 51.55806351 69.90418243 C51.57649237 71.98197027 51.59164202 74.05979004 51.60334396 76.13762665 C51.14868449 95.93317356 51.14868449 95.93317356 58 114 C58 114.66 58 115.32 58 116 C59.65984798 116.68346682 61.32836805 117.34588315 63 118 C64.30324219 118.52013672 64.30324219 118.52013672 65.6328125 119.05078125 C69.76162467 120.21470394 73.48268227 120.34335131 77.75 120.3125 C78.54986328 120.30758545 79.34972656 120.3026709 80.17382812 120.29760742 C90.63989208 120.09036915 97.39717486 116.80141257 107 112 C107.33 75.04 107.66 38.08 108 0 C124.83 0 141.66 0 159 0 C159 52.14 159 104.28 159 158 C142.17 158 125.34 158 108 158 C107.67 152.72 107.34 147.44 107 142 C104.2775 143.98 104.2775 143.98 101.5 146 C82.54749521 159.29700709 64.17517382 163.83486017 41 162 C36.61076507 161.21446453 32.96117648 160.02460131 29 158 C27.68902344 157.34644531 27.68902344 157.34644531 26.3515625 156.6796875 C17.36093356 151.73889142 11.45593032 145.56415114 6.6875 136.5625 C6.36185059 135.97355957 6.03620117 135.38461914 5.70068359 134.77783203 C-1.75454925 119.70066068 -0.40306629 101.36429202 -0.29296875 85.05859375 C-0.28736096 82.59424602 -0.28309647 80.1298949 -0.28010559 77.6655426 C-0.26874995 71.23603792 -0.23936436 64.8067424 -0.20599365 58.37731934 C-0.16964026 50.63272676 -0.15608738 42.88806353 -0.13863373 35.14340973 C-0.10972024 23.42879515 -0.05216811 11.71463788 0 0 Z " fill="#FDFDFD" transform="translate(1497,254)"/>
<path d="M0 0 C17.49 0 34.98 0 53 0 C61.04153751 20.67823931 61.04153751 20.67823931 64.70703125 30.62109375 C65.11733078 31.73017593 65.52763031 32.83925812 65.95036316 33.98194885 C67.23914994 37.46661409 68.52589101 40.95203017 69.8125 44.4375 C70.65936485 46.72856751 71.50636953 49.01958334 72.35351562 51.31054688 C74.04054591 55.87328804 75.72682863 60.43630443 77.41259766 64.99951172 C81.60131186 76.3356303 85.80101051 87.66768431 90 99 C91.65573455 96.51639817 92.55297721 94.76218881 93.51782227 92.01489258 C93.80375244 91.20736038 94.08968262 90.39982819 94.38427734 89.56782532 C94.84568115 88.24454475 94.84568115 88.24454475 95.31640625 86.89453125 C95.64519775 85.96243332 95.97398926 85.03033539 96.31274414 84.06999207 C97.39983618 80.98549833 98.48112865 77.89900346 99.5625 74.8125 C100.31523848 72.67367486 101.06841812 70.53500493 101.82202148 68.39648438 C103.40257533 63.91026273 104.98117685 59.4233607 106.55859375 54.93603516 C110.53991213 43.61695688 114.55376954 32.30939071 118.5625 21 C121.016875 14.07 123.47125 7.14 126 0 C143.49 0 160.98 0 179 0 C172.31435569 16.75604582 165.56690825 33.48451196 158.75 50.1875 C157.79800484 52.52201699 156.84610275 54.85657193 155.89428711 57.19116211 C153.9212757 62.03026464 151.94787206 66.86920689 149.97412109 71.70800781 C145.16768534 83.49179434 140.36478621 95.2770219 135.5625 107.0625 C135.0998877 108.19769073 134.63727539 109.33288147 134.16064453 110.50247192 C128.50931346 124.37082152 122.86969827 138.24380404 117.25 152.125 C111.56886466 166.15696145 105.85370392 180.17489394 100.125 194.1875 C99.72333618 195.170672 99.32167236 196.15384399 98.90783691 197.16680908 C97.77534763 199.93837843 96.64177086 202.70950019 95.5078125 205.48046875 C95.16692596 206.31498062 94.82603943 207.14949249 94.474823 208.0092926 C92.11497228 213.77005543 92.11497228 213.77005543 91 216 C72.85 216 54.7 216 36 216 C37.8291193 210.51264211 39.55742666 205.46097018 41.85546875 200.2265625 C42.25006538 199.32306816 42.25006538 199.32306816 42.65263367 198.40132141 C43.20926706 197.12759582 43.76752205 195.85457775 44.32733154 194.58224487 C45.2004979 192.59542432 46.06722779 190.60590983 46.93212891 188.61547852 C49.49030531 182.73052021 52.06319524 176.85279449 54.66796875 170.98828125 C55.40402007 169.30485108 56.13972942 167.62127132 56.875 165.9375 C57.38389771 164.81625732 57.38389771 164.81625732 57.90307617 163.67236328 C60.87213534 156.81450389 59.07385674 152.88210207 56.4375 146.1484375 C56.17492401 145.47470596 55.91234802 144.80097443 55.64181519 144.10682678 C54.765294 141.86126374 53.88271378 139.61813529 53 137.375 C52.36967765 135.7645126 51.73963869 134.15391425 51.10986328 132.54321289 C45.69709545 118.71539737 40.23081116 104.90849537 34.76196289 91.1027832 C28.11574348 74.320743 21.52748204 57.51614006 14.95068359 40.70678711 C14.15333804 38.67040322 13.35597511 36.63402612 12.55859375 34.59765625 C11.98594788 33.13286079 11.98594788 33.13286079 11.4017334 31.63847351 C9.50658585 26.80062917 7.59034779 21.97283641 5.63330078 17.15966797 C5.25875259 16.2359288 4.88420441 15.31218964 4.49830627 14.36045837 C3.79144356 12.62156598 3.08021042 10.88444147 2.36387634 9.14942932 C2.0518074 8.38138474 1.73973846 7.61334015 1.41821289 6.82202148 C1.14312393 6.15299301 0.86803497 5.48396454 0.58460999 4.79466248 C0 3 0 3 0 0 Z " fill="#FDFEFE" transform="translate(1149,254)"/>
<path d="M0 0 C0 13.2 0 26.4 0 40 C-5.93632528 39.15195353 -9.15768654 38.127928 -14.0625 35.25 C-28.22055578 27.34132244 -42.28945918 23.63837715 -58.5 23.6875 C-59.56347656 23.67138672 -60.62695312 23.65527344 -61.72265625 23.63867188 C-70.33028639 23.63339112 -78.89271302 24.72685159 -86 30 C-87.61741584 33.23483168 -87.5649495 36.50269356 -87 40 C-81.73186073 47.90220891 -69.50692939 48.66248724 -60.8125 50.5 C-59.80509766 50.71720703 -58.79769531 50.93441406 -57.75976562 51.15820312 C-53.4144412 52.08954265 -49.0690671 53.0032298 -44.69921875 53.8125 C-28.15030027 56.88811737 -10.11218473 61.4265573 0 76 C7.12845545 87.03576393 8.75312121 98.78615272 6.3125 111.61328125 C2.30285548 125.83081243 -6.5697936 135.81787209 -19.078125 143.40234375 C-36.48336396 152.91937949 -54.9220473 155.40517682 -74.4375 155.3125 C-75.23136108 155.31067719 -76.02522217 155.30885437 -76.84313965 155.30697632 C-100.10665509 155.21711398 -119.14266139 150.94812313 -141 143 C-141 129.14 -141 115.28 -141 101 C-134.61612703 101.91198185 -132.92240021 102.32257798 -128 105.6875 C-121.01473579 110.2267492 -113.8570738 113.29206837 -106 116 C-104.87207031 116.41507812 -103.74414062 116.83015625 -102.58203125 117.2578125 C-93.21756614 120.17846356 -83.87308837 120.42154284 -74.125 120.5 C-73.4532373 120.51053406 -72.78147461 120.52106812 -72.08935547 120.53192139 C-63.76502736 120.63279923 -56.33685952 120.26541479 -49 116 C-46.23143959 112.98715485 -46.03194669 111.46322698 -45.75 107.375 C-45.86056834 104.00949011 -45.86056834 104.00949011 -47 101 C-48.7389724 100.05671713 -48.7389724 100.05671713 -50.91015625 99.46875 C-51.72629395 99.22125 -52.54243164 98.97375 -53.38330078 98.71875 C-57.71110048 97.52999815 -62.05746621 96.4777663 -66.4375 95.5 C-67.87331421 95.17418945 -67.87331421 95.17418945 -69.33813477 94.84179688 C-75.3475 93.50582849 -81.35211407 92.41829771 -87.4375 91.5 C-104.21271815 88.88471812 -121.32684031 82.95877864 -132 69 C-139.68601013 56.45229202 -142.3106934 43.59041217 -138.9375 29.125 C-134.47677021 15.26561627 -122.88239601 5.31656651 -110.41015625 -1.28125 C-79.14631968 -17.03851013 -31.35913633 -15.67956816 0 0 Z " fill="#FDFDFD" transform="translate(1834,261)"/>
<path d="M0 0 C16.83 0 33.66 0 51 0 C51 7.26 51 14.52 51 22 C54.3721875 19.463125 54.3721875 19.463125 57.8125 16.875 C63.94203613 12.33633076 70.12163996 8.3363474 77 5 C77.94746094 4.52820313 77.94746094 4.52820313 78.9140625 4.046875 C90.40401981 -1.30461197 101.25336125 0 114 0 C114 15.84 114 31.68 114 48 C108.39 47.67 102.78 47.34 97 47 C81.87532864 46.3011703 68.512535 47.5338048 53.8815918 51.54101562 C52 52 52 52 50 52 C50 86.98 50 121.96 50 158 C33.5 158 17 158 0 158 C0 105.86 0 53.72 0 0 Z " fill="#FEFEFE" transform="translate(1356,254)"/>
<path d="M0 0 C7.23367813 6.84312743 9.65355206 16.030002 10.39794922 25.75244141 C10.48984283 29.4853091 10.48576265 33.20390138 10.4375 36.9375 C10.44072266 38.19949219 10.44394531 39.46148437 10.44726562 40.76171875 C10.37170359 53.85455848 7.60702742 66.5223433 -1.875 76.1875 C-14.52253387 86.05607746 -28.88208672 84.60614867 -44.0625 83.6015625 C-46.875 83.1875 -46.875 83.1875 -50.875 81.1875 C-50.875 54.7875 -50.875 28.3875 -50.875 1.1875 C-34.20729097 -6.50528878 -16.04837833 -12.60220025 0 0 Z " fill="#070C1A" transform="translate(1068.875,294.8125)"/>
<path d="M0 0 C5.506875 -0.0825 11.01375 -0.165 16.6875 -0.25 C19.25084106 -0.30462402 19.25084106 -0.30462402 21.8659668 -0.36035156 C33.56228397 -0.50514985 44.9945511 0.54473612 54.34765625 8.35546875 C60.92107177 14.89780429 62.23720567 20.56272281 62.3125 29.625 C62.32077371 38.82995744 61.15725417 45.88126947 54.75 52.875 C40.08064609 66.02790171 18.01168038 62 0 62 C0 41.54 0 21.08 0 0 Z " fill="#060B19" transform="translate(621,242)"/>
<path d="M0 0 C0.22340401 4.5895203 0.38617929 9.17584819 0.49438477 13.76953125 C0.5395005 15.32966242 0.60081719 16.88941597 0.67895508 18.44824219 C1.30986422 31.36332336 1.30986422 31.36332336 -1.8347168 35.29248047 C-4.16727038 36.87717938 -6.38055967 37.96898132 -9 39 C-10.01964844 39.55429687 -11.03929687 40.10859375 -12.08984375 40.6796875 C-22.19096623 44.91966484 -34.87211075 46.56534637 -45.3125 42.3125 C-49.80188712 39.82525606 -53.34572593 36.96282222 -55 32 C-56.28995352 19.64283161 -56.28995352 19.64283161 -53.71875 14.375 C-44.8170058 3.69290696 -31.23686876 2.87303446 -18.3125 1.375 C-16.66024414 1.17390625 -16.66024414 1.17390625 -14.97460938 0.96875 C-9.94233954 0.37350263 -5.07395588 -0.07034785 0 0 Z " fill="#080D1B" transform="translate(870,338)"/>
<path d="M0 0 C0.66 0.33 1.32 0.66 2 1 C1.113125 1.721875 0.22625 2.44375 -0.6875 3.1875 C-3.62966524 5.64273346 -6.32048415 8.25668615 -9 11 C-9.63164062 11.62132812 -10.26328125 12.24265625 -10.9140625 12.8828125 C-14.85200079 16.76175546 -18.54666492 20.68333115 -22 25 C-23.5625 23.75 -23.5625 23.75 -25 22 C-24.74948707 19.43044375 -24.26981514 18.27070019 -22.43701172 16.43188477 C-21.77459473 15.94002686 -21.11217773 15.44816895 -20.4296875 14.94140625 C-19.6975 14.39033203 -18.9653125 13.83925781 -18.2109375 13.27148438 C-17.44007813 12.70751953 -16.66921875 12.14355469 -15.875 11.5625 C-15.12734375 11.00240234 -14.3796875 10.44230469 -13.609375 9.86523438 C-9.11850414 6.51272886 -4.57041155 3.24293127 0 0 Z " fill="#0C0B16" transform="translate(368,210)"/>
<path d="M0 0 C0.66 0.33 1.32 0.66 2 1 C1.071875 1.763125 0.14375 2.52625 -0.8125 3.3125 C-2.98276101 5.11848552 -5.05568065 6.9476629 -7 9 C-7.99 8.67 -8.98 8.34 -10 8 C-6.66666667 5.33333333 -3.33333333 2.66666667 0 0 Z " fill="#211B16" transform="translate(368,210)"/>
<path d="M0 0 C0.99 0.33 1.98 0.66 3 1 C0.03716687 3.38672669 -2.94270509 5.7353371 -6 8 C-6 6.68 -6 5.36 -6 4 C-3.1875 1.6875 -3.1875 1.6875 0 0 Z " fill="#101118" transform="translate(369,276)"/>
<path d="M0 0 C0.33 0.66 0.66 1.32 1 2 C-0.25 4 -0.25 4 -2 6 C-3.32 6 -4.64 6 -6 6 C-6 5.01 -6 4.02 -6 3 C-4.02 2.01 -2.04 1.02 0 0 Z " fill="#F4DE46" transform="translate(387,281)"/>
<path d="M0 0 C2 3 2 3 2 6 C0.02 6 -1.96 6 -4 6 C-2.84826645 3.53199953 -1.95216435 1.95216435 0 0 Z " fill="#17131A" transform="translate(356,284)"/>
<path d="M0 0 C0 3 0 3 -1 6 C-2.32303717 6.3721042 -3.65737935 6.70630173 -5 7 C-5.33 7.66 -5.66 8.32 -6 9 C-6 6 -6 6 -4.6875 4.39453125 C-4.130625 3.87246094 -3.57375 3.35039062 -3 2.8125 C-2.443125 2.28269531 -1.88625 1.75289063 -1.3125 1.20703125 C-0.6628125 0.60955078 -0.6628125 0.60955078 0 0 Z " fill="#1C1919" transform="translate(338,349)"/>
</svg>
