<?xml version="1.0" encoding="UTF-8"?>
<svg version="1.1" xmlns="http://www.w3.org/2000/svg" width="1823" height="649">
<path d="M0 0 C601.59 0 1203.18 0 1823 0 C1823 214.17 1823 428.34 1823 649 C1221.41 649 619.82 649 0 649 C0 434.83 0 220.66 0 0 Z " fill="#050918" transform="translate(0,0)"/>
<path d="M0 0 C4.87698744 5.51754698 4.68058178 12.64470087 4.37890625 19.65625 C1.56833784 58.84561773 -27.56191573 94.22186269 -55.65234375 119.375 C-61.15062165 123.93759041 -67.04197305 127.57963642 -73.21484375 131.140625 C-75.89396762 132.9292126 -77.17839652 134.41198813 -79 137 C-60.47383901 134.35750958 -60.47383901 134.35750958 -43 128 C-48.23684045 145.29194347 -61.55790224 161.33424927 -73 175 C-73.78632813 175.97066406 -74.57265625 176.94132813 -75.3828125 177.94140625 C-81.85092348 185.80870243 -88.88346542 193.09676496 -96.0625 200.3125 C-97.42689209 201.69066895 -97.42689209 201.69066895 -98.81884766 203.09667969 C-104.90531455 209.15579414 -111.27766066 214.66142047 -118 220 C-119.62587223 221.3322696 -121.25099862 222.66545052 -122.875 224 C-135.41478374 233.91334085 -146.87548528 241.06475501 -162.625 244.5625 C-169.40479724 246.15774641 -172.02113441 249.30895205 -175.61328125 255.0703125 C-180.14210412 262.67314955 -183.66084037 270.76478578 -187.3125 278.8125 C-188.07230654 280.47298653 -188.83248124 282.13330464 -189.59301758 283.79345703 C-193.97052523 293.37665423 -198.29184604 302.98344266 -202.13598633 312.79614258 C-205.97694575 322.22846366 -212.50059564 327.51292978 -220.625 333.375 C-221.470625 334.00277344 -222.31625 334.63054687 -223.1875 335.27734375 C-230.02234769 340.26872306 -230.02234769 340.26872306 -234 341 C-233.49756583 333.71095496 -231.73257921 327.57723249 -229.1875 320.75 C-228.5989624 319.14427124 -228.5989624 319.14427124 -227.99853516 317.50610352 C-223.04921168 304.18166563 -217.55331705 291.08150951 -212 278 C-211.64131836 277.14986328 -211.28263672 276.29972656 -210.91308594 275.42382812 C-207.37438944 267.05435722 -203.53576402 258.86215426 -199.41015625 250.765625 C-197.52648426 247.0646588 -195.69372068 243.34077156 -193.87109375 239.609375 C-186.64440726 224.87528411 -178.961935 210.56921446 -170.49560547 196.49609375 C-169.22922836 194.38257113 -167.98409195 192.25968359 -166.75390625 190.125 C-146.48206332 155.35068854 -122.11097732 121.77142233 -94.921875 92.1015625 C-93.18256911 90.19963858 -91.49236869 88.26680268 -89.8125 86.3125 C-86.20982007 82.19150999 -82.51972238 78.15181871 -78.8125 74.125 C-78.20575439 73.45766846 -77.59900879 72.79033691 -76.97387695 72.1027832 C-76.39081787 71.47331787 -75.80775879 70.84385254 -75.20703125 70.1953125 C-74.6860083 69.62828613 -74.16498535 69.06125977 -73.62817383 68.47705078 C-72 67 -72 67 -69.86206055 65.98779297 C-67.64550254 65.08629107 -67.64550254 65.08629107 -67 62 C-66.34 61.34 -65.68 60.68 -65 60 C-74.22152966 66.11247056 -82.67903093 72.72192572 -91 80 C-91.73992187 80.639375 -92.47984375 81.27875 -93.2421875 81.9375 C-95.17296568 83.61239191 -97.08770952 85.30404945 -99 87 C-99.73089844 87.63808594 -100.46179688 88.27617187 -101.21484375 88.93359375 C-112.41019414 98.82251751 -122.7531688 109.26243986 -132 121 C-132.97894253 122.19243172 -133.96091674 123.38237863 -134.9453125 124.5703125 C-153.97685158 147.58289426 -170.08226427 172.16258166 -185 198 C-185.6499292 199.12196777 -185.6499292 199.12196777 -186.31298828 200.26660156 C-191.93061789 209.9936518 -197.06272767 219.91233568 -202 230 C-202.66496653 231.33418205 -203.33064381 232.66801482 -204 234 C-204.66 234 -205.32 234 -206 234 C-213.20931024 214.57685833 -213.39925319 195.97615186 -209 176 C-208.73316406 174.76636719 -208.46632812 173.53273438 -208.19140625 172.26171875 C-200.24797816 139.39357853 -180.06140469 110.9822328 -158 86 C-157.15953125 85.04738281 -156.3190625 84.09476562 -155.453125 83.11328125 C-149.17744827 76.12501155 -142.57185956 69.4468884 -135.95690918 62.78167725 C-134.96114564 61.77787368 -133.96686706 60.77259438 -132.97424316 59.76568604 C-126.33407975 53.04013218 -119.4242685 46.85390503 -112 41 C-110.77305693 40.01088856 -109.54643843 39.0213742 -108.3203125 38.03125 C-86.9076665 20.98726665 -28.25132658 -22.95420285 0 0 Z " fill="#FDD440" transform="translate(431,153)"/>
<path d="M0 0 C0.72703125 0.44601562 1.4540625 0.89203125 2.203125 1.3515625 C14.44431889 9.71482092 21.8283386 22.69329716 25 37 C26.15419205 44.13510327 26.18386672 51.10043984 26.1875 58.3125 C26.19974609 59.58029297 26.21199219 60.84808594 26.22460938 62.15429688 C26.25472705 81.54004152 20.58155263 98.71430825 7.375 113.25 C-6.06239941 126.01953662 -21.96469262 128.64998949 -39.8203125 128.42578125 C-49.61130388 128.01243728 -57.36520356 124.31739822 -66 120 C-66 137.49 -66 154.98 -66 173 C-79.53 173 -93.06 173 -107 173 C-107 115.25 -107 57.5 -107 -2 C-93.47 -2 -79.94 -2 -66 -2 C-65.505 3.94 -65.505 3.94 -65 10 C-64.0821875 9.39671875 -63.164375 8.7934375 -62.21875 8.171875 C-44.12092917 -3.64907382 -20.40125525 -12.93905115 0 0 Z " fill="#FEFEFE" transform="translate(999,263)"/>
<path d="M0 0 C14.705625 -0.0825 29.41125 -0.165 44.5625 -0.25 C51.48391968 -0.30462402 51.48391968 -0.30462402 58.54516602 -0.36035156 C64.25378418 -0.37841797 64.25378418 -0.37841797 66.9405365 -0.3817749 C68.78575011 -0.38784933 70.63094955 -0.40177367 72.47605896 -0.42230225 C92.38650131 -0.63242322 111.96627204 2.31117319 127.03125 16.7578125 C136.81120412 27.89609358 139.17723738 38.99799507 139.1875 53.4375 C139.19974609 54.34048828 139.21199219 55.24347656 139.22460938 56.17382812 C139.25787694 71.48799557 133.17523336 84.18891516 122.890625 95.2734375 C107.81714232 110.09400939 88.1029005 114.29381256 67.67895508 114.18017578 C64.77505981 114.15286377 64.77505981 114.15286377 61.8125 114.125 C52.5003125 114.063125 52.5003125 114.063125 43 114 C43 132.15 43 150.3 43 169 C28.81 169 14.62 169 0 169 C0 113.23 0 57.46 0 0 Z " fill="#FEFEFE" transform="translate(568,220)"/>
<path d="M0 0 C1.27511444 -0.00209976 1.27511444 -0.00209976 2.57598877 -0.00424194 C21.3691022 0.02114163 40.46599427 1.45064484 55.1171875 14.63671875 C62.50616583 22.78580729 65.06238347 31.47667428 64.97705078 42.20654297 C64.97734283 43.17302261 64.97763489 44.13950226 64.97793579 45.13526917 C64.97654699 48.31683456 64.96100684 51.49816322 64.9453125 54.6796875 C64.94158078 56.89071525 64.93873456 59.10174466 64.93673706 61.31277466 C64.92911319 67.12260531 64.90947532 72.93233544 64.8873291 78.74212646 C64.86684388 84.67442464 64.85772961 90.60673912 64.84765625 96.5390625 C64.82622831 108.1719262 64.79105624 119.804689 64.75 131.4375 C51.55 131.4375 38.35 131.4375 24.75 131.4375 C24.75 127.1475 24.75 122.8575 24.75 118.4375 C23.97398437 119.01757812 23.19796875 119.59765625 22.3984375 120.1953125 C5.90618543 132.23284985 -9.94511585 135.86678692 -30.25 134.4375 C-40.66886748 132.57444511 -50.00962447 125.92975098 -56.25 117.5 C-62.96147138 106.845338 -63.70190641 95.74180023 -61.78125 83.43359375 C-58.80833809 72.12591095 -51.66801317 65.08508591 -42.01171875 59.03515625 C-22.63485253 48.32088904 3.1925327 48.00241988 24.75 47.4375 C24.45867187 46.18453125 24.16734375 44.9315625 23.8671875 43.640625 C23.70331543 42.93583008 23.53944336 42.23103516 23.37060547 41.50488281 C22.3083416 37.96623196 20.6837925 35.586295 17.75 33.4375 C9.58173323 29.73644294 1.69654785 28.72822957 -7.1875 28.8125 C-8.35031494 28.81652832 -9.51312988 28.82055664 -10.71118164 28.82470703 C-21.88361651 29.0798936 -34.28536486 30.94442326 -44.18969727 36.53173828 C-46.25 37.4375 -46.25 37.4375 -51.25 37.4375 C-51.25 27.2075 -51.25 16.9775 -51.25 6.4375 C-34.19030645 1.46865722 -17.70725191 -0.00281404 0 0 Z " fill="#FDFDFD" transform="translate(789.25,257.5625)"/>
<path d="M0 0 C13.53 0 27.06 0 41 0 C41.04898437 5.69378906 41.09796875 11.38757813 41.1484375 17.25390625 C41.18383622 20.86785597 41.2198033 24.48178222 41.2578125 28.09570312 C41.31804599 33.82784611 41.37621068 39.55995635 41.421875 45.29223633 C41.45883559 49.9153691 41.50522454 54.53832115 41.55806351 59.16129875 C41.5765503 60.92223874 41.59167921 62.68321738 41.60334396 64.44421577 C41.62030459 66.91685491 41.64936247 69.38908529 41.68115234 71.86157227 C41.68331253 72.58446442 41.68547272 73.30735657 41.68769836 74.05215454 C41.79862403 80.83633239 43.30418859 87.26512023 47 93 C52.03564187 96.47110911 55.95802432 97.68800934 62.125 97.5625 C62.85984619 97.55661865 63.59469238 97.5507373 64.35180664 97.54467773 C72.34357967 97.27542831 78.88570976 94.55714512 86 91 C86.33 60.97 86.66 30.94 87 0 C100.53 0 114.06 0 128 0 C128 42.24 128 84.48 128 128 C114.47 128 100.94 128 87 128 C87 123.71 87 119.42 87 115 C86.00742188 115.65226562 85.01484375 116.30453125 83.9921875 116.9765625 C79.71914743 119.74921055 75.37281209 122.38840347 71 125 C69.92234375 125.66 68.8446875 126.32 67.734375 127 C59.87625459 131.10675639 52.64094549 131.57747756 43.875 131.6875 C42.79041504 131.70699707 41.70583008 131.72649414 40.58837891 131.74658203 C29.9370633 131.58996878 20.48902847 128.34470589 12.7421875 120.87109375 C3.20509327 110.62834008 -0.17055666 99.51779086 -0.11352539 85.71166992 C-0.11367142 84.78435059 -0.11381744 83.85703125 -0.1139679 82.90161133 C-0.11327269 79.84453979 -0.10549864 76.78752961 -0.09765625 73.73046875 C-0.09579068 71.60769179 -0.09436743 69.48491439 -0.09336853 67.36213684 C-0.08955433 61.78084113 -0.07973339 56.19957154 -0.06866455 50.61828613 C-0.05842686 44.92065789 -0.05386586 39.22302542 -0.04882812 33.52539062 C-0.03811015 22.35024711 -0.0205222 11.17512981 0 0 Z " fill="#FEFEFE" transform="translate(1322,261)"/>
<path d="M0 0 C14.52 0 29.04 0 44 0 C46.59791367 7.04542893 49.19571857 14.09089676 51.79264832 21.13668823 C53.00295475 24.42031915 54.21341897 27.70389166 55.42431641 30.98730469 C58.18770331 38.48068984 60.94762542 45.97533217 63.70263672 53.47180176 C64.55476222 55.78916941 65.40792009 58.10615777 66.26220703 60.42272949 C67.40704866 63.5280951 68.54785014 66.63491352 69.6875 69.7421875 C70.19627686 71.11831711 70.19627686 71.11831711 70.71533203 72.52224731 C71.01938965 73.35392426 71.32344727 74.1856012 71.63671875 75.04248047 C71.90186279 75.76353973 72.16700684 76.484599 72.44018555 77.22750854 C73 79 73 79 73 81 C73.66 81 74.32 81 75 81 C75.25507324 79.7330127 75.51014648 78.46602539 75.77294922 77.16064453 C76.97754722 71.75582949 78.75358124 66.6318735 80.6328125 61.4296875 C80.98834198 60.43156036 81.34387146 59.43343323 81.71017456 58.40505981 C82.84344625 55.22655955 83.98393377 52.05070935 85.125 48.875 C86.23844008 45.76174373 87.35034469 42.647943 88.46185303 39.53399658 C89.19903308 37.46947841 89.93718765 35.40530794 90.67633057 33.3414917 C93.6890507 24.91688266 96.62791353 16.46755508 99.51907349 8.00045776 C99.83101654 7.0942569 100.14295959 6.18805603 100.46435547 5.25439453 C100.87450394 4.05437302 100.87450394 4.05437302 101.29293823 2.83010864 C102 1 102 1 103 0 C106.10251201 -0.08874135 109.1826812 -0.11518455 112.28515625 -0.09765625 C113.21597519 -0.0962413 114.14679413 -0.09482635 115.1058197 -0.09336853 C118.09141191 -0.08775172 121.07693029 -0.0751964 124.0625 -0.0625 C126.08137913 -0.05748716 128.10025943 -0.05292388 130.11914062 -0.04882812 C135.07945572 -0.03777683 140.03971532 -0.02050095 145 0 C143.29853038 5.94775415 141.44083953 11.68009186 139.0234375 17.375 C138.74145004 18.04448166 138.45946259 18.71396332 138.16893005 19.4037323 C137.56054902 20.84745511 136.95003355 22.29028005 136.33755493 23.73226929 C134.64107762 27.72908398 132.96362242 31.73387683 131.28515625 35.73828125 C130.93255234 36.57877518 130.57994843 37.4192691 130.21665955 38.28523254 C126.33585966 47.55390647 122.56999062 56.86831112 118.8125 66.1875 C117.38453724 69.72673318 115.95611839 73.26578199 114.52734375 76.8046875 C114.16405975 77.70457901 113.80077576 78.60447052 113.42648315 79.53163147 C108.52045419 91.67487983 103.5607419 103.79626627 98.60498047 115.91928101 C94.19667628 126.70334899 89.79485606 137.48977513 85.43359375 148.29296875 C85.07916199 149.17032181 84.72473022 150.04767487 84.35955811 150.95161438 C82.70435212 155.04951851 81.05177797 159.14844792 79.40380859 163.24926758 C78.82789602 164.67663401 78.25189278 166.10396386 77.67578125 167.53125 C77.41639267 168.17970383 77.15700409 168.82815765 76.88975525 169.4962616 C75.11350381 173.88649619 75.11350381 173.88649619 74 175 C72.61839885 175.0927833 71.23211962 175.11747043 69.84741211 175.11352539 C68.96657455 175.11344986 68.085737 175.11337433 67.1782074 175.11329651 C66.22092239 175.10813522 65.26363739 175.10297394 64.27734375 175.09765625 C63.30213272 175.0962413 62.32692169 175.09482635 61.32215881 175.09336853 C58.19390857 175.08775133 55.06572877 175.07519593 51.9375 175.0625 C49.82226666 175.05748722 47.70703219 175.05292393 45.59179688 175.04882812 C40.39450704 175.03777631 35.19725855 175.02102146 30 175 C31.92503132 168.85269712 34.22510364 163.01649454 36.8984375 157.16015625 C37.63316046 155.50398623 38.36618332 153.84706113 39.09765625 152.18945312 C40.23490867 149.61723694 41.38042708 147.05069492 42.55517578 144.49536133 C43.69865134 141.99965778 44.8013106 139.48901603 45.8984375 136.97265625 C46.25449066 136.22129898 46.61054382 135.46994171 46.97738647 134.69581604 C49.68262409 128.33479626 48.50849372 124.26505079 46 118 C45.68982941 117.16071457 45.37965881 116.32142914 45.06008911 115.45671082 C44.05014798 112.74992768 42.99527208 110.06424822 41.9296875 107.37890625 C41.53599472 106.37736008 41.14230194 105.3758139 40.73667908 104.34391785 C39.45330725 101.08191189 38.16421865 97.82219905 36.875 94.5625 C35.97712114 92.28366122 35.07958304 90.00468815 34.18237305 87.72558594 C31.46033235 80.81491333 28.73059743 73.90729504 26 67 C25.18076032 64.9262958 24.36158472 62.85256629 23.54248047 60.77880859 C20.25655284 52.46043521 16.9683108 44.14297982 13.67753601 35.82652283 C10.25595261 27.17924841 6.83637322 18.53123333 3.4375 9.875 C2.89089722 8.48812988 2.89089722 8.48812988 2.33325195 7.07324219 C0 1.11726283 0 1.11726283 0 0 Z " fill="#FDFDFD" transform="translate(1039,261)"/>
<path d="M0 0 C0 10.89 0 21.78 0 33 C-6.02105131 32.13984981 -8.61837926 31.43695341 -13.6875 28.6875 C-29.0519063 20.63093254 -45.79202136 17.33254994 -62.97265625 21.36328125 C-65.63628131 22.19983402 -67.79272421 23.29114133 -70 25 C-71.42041821 27.84083641 -71.31452272 29.85477278 -71 33 C-64.27012571 41.40910974 -50.14299445 41.78783433 -40.1875 43.3125 C-25.53015534 45.76650581 -10.99381766 49.04271706 -1 61 C5.24860015 70.16864816 5.95420523 79.15191266 5 90 C2.95911405 100.00771783 -2.59614789 107.74462321 -10.75 113.75 C-33.24524567 128.45188522 -65.28448803 129.71028187 -91.1875 124.3125 C-99.33463259 122.5738287 -107.09568388 119.63477204 -115 117 C-115 105.45 -115 93.9 -115 82 C-109.74050939 82 -109.37107121 82.0887107 -105.625 85.125 C-92.63245208 94.647728 -76.55846745 98.21004056 -60.6875 98.3125 C-59.86354736 98.31813965 -59.03959473 98.3237793 -58.19067383 98.32958984 C-51.7563482 98.2532756 -44.97830258 97.88867969 -39.4375 94.375 C-37.29216528 90.83053395 -37.72671431 88.09928529 -38 84 C-44.79815448 79.10954468 -52.61552538 78.3329361 -60.6875 77 C-78.11838671 74.08514943 -96.39379036 70.59693506 -108 56 C-109.62405403 53.42090524 -110.9082439 50.84288966 -112 48 C-112.35707031 47.071875 -112.71414063 46.14375 -113.08203125 45.1875 C-115.18314476 37.89171862 -115.25352861 28.85199037 -112.03125 21.85546875 C-111.6909375 21.24316406 -111.350625 20.63085938 -111 20 C-110.5978125 19.27425781 -110.195625 18.54851562 -109.78125 17.80078125 C-101.98270739 5.04149903 -88.81015903 -2.77725342 -74.49829102 -6.45336914 C-49.77032574 -11.86389531 -23.60643438 -7.94034611 0 0 Z " fill="#FCFCFC" transform="translate(1595,266)"/>
<path d="M0 0 C13.53 0 27.06 0 41 0 C41 5.94 41 11.88 41 18 C43.0625 16.47375 45.125 14.9475 47.25 13.375 C62.52104213 2.32648977 73.13256674 0 93 0 C93 12.87 93 25.74 93 39 C74.3125 38.8125 74.3125 38.8125 68.5012207 38.72973633 C66.9344139 38.72095227 65.36760009 38.71331293 63.80078125 38.70703125 C62.63742249 38.6840094 62.63742249 38.6840094 61.45056152 38.66052246 C53.98687821 38.65709823 48.75724606 40.20986629 41 42 C41 70.38 41 98.76 41 128 C27.47 128 13.94 128 0 128 C0 85.76 0 43.52 0 0 Z " fill="#FEFEFE" transform="translate(1207,261)"/>
<path d="M0 0 C7.06415203 5.15610272 10.15780254 10.90529584 11.89453125 19.3828125 C12.26480381 23.4362159 12.27098383 27.44042818 12.20703125 31.5078125 C12.21025391 32.54035156 12.21347656 33.57289063 12.21679688 34.63671875 C12.14541628 44.82467709 10.46265877 55.58369279 3.10546875 63.24609375 C-4.71179614 69.5217068 -13.05390172 70.8700908 -22.85546875 70.6953125 C-24.23412109 70.70014648 -24.23412109 70.70014648 -25.640625 70.70507812 C-30.62213848 70.66542787 -33.29430687 70.30727725 -38.10546875 68.3828125 C-38.10546875 46.9328125 -38.10546875 25.4828125 -38.10546875 3.3828125 C-26.64612128 -1.8259818 -12.14495758 -6.64141084 0 0 Z " fill="#070C1A" transform="translate(971.10546875,291.6171875)"/>
<path d="M0 0 C6.80625 -0.12375 6.80625 -0.12375 13.75 -0.25 C15.15475586 -0.28641602 16.55951172 -0.32283203 18.00683594 -0.36035156 C27.33735304 -0.44157763 36.80379015 0.49983625 44.5 6.3125 C50.42907053 12.68625081 51.61528448 17.34677339 51.54516602 25.93579102 C51.21476821 33.47184078 48.84793936 38.81700895 43.875 44.375 C36.45066813 48.57136149 28.43729208 51.13939849 19.921875 51.09765625 C18.87612305 51.09515869 17.83037109 51.09266113 16.75292969 51.09008789 C14.77147949 51.07643188 14.77147949 51.07643188 12.75 51.0625 C8.5425 51.041875 4.335 51.02125 0 51 C0 34.17 0 17.34 0 0 Z " fill="#090E1C" transform="translate(611,251)"/>
<path d="M0 0 C0.29121422 4.37358953 0.46824053 8.74469259 0.625 13.125 C0.70878906 14.3625 0.79257812 15.6 0.87890625 16.875 C0.9762949 20.49785774 0.93598215 23.49474402 0 27 C-2.9501093 30.00775275 -6.09661391 31.51079688 -10 33 C-10.86173828 33.34224609 -11.72347656 33.68449219 -12.61132812 34.03710938 C-20.62539803 37.00349073 -30.40727979 37.64462097 -38.30859375 34.015625 C-41.48395897 32.10893919 -43.61146083 30.41349212 -45 27 C-45.70377367 21.62019169 -46.04388251 16.39458183 -43.84375 11.34765625 C-39.28523485 5.54327574 -33.72050206 4.11421615 -26.8125 2.8125 C-25.97114502 2.64524414 -25.12979004 2.47798828 -24.26293945 2.30566406 C-16.1445717 0.7396607 -8.26333496 -0.01413382 0 0 Z " fill="#0A0F1C" transform="translate(814,329)"/>
<path d="M0 0 C0.66 0.33 1.32 0.66 2 1 C1.113125 1.721875 0.22625 2.44375 -0.6875 3.1875 C-3.62966524 5.64273346 -6.32048415 8.25668615 -9 11 C-9.63164062 11.62132812 -10.26328125 12.24265625 -10.9140625 12.8828125 C-14.85200079 16.76175546 -18.54666492 20.68333115 -22 25 C-23.5625 23.75 -23.5625 23.75 -25 22 C-24.74948707 19.43044375 -24.26981514 18.27070019 -22.43701172 16.43188477 C-21.77459473 15.94002686 -21.11217773 15.44816895 -20.4296875 14.94140625 C-19.6975 14.39033203 -18.9653125 13.83925781 -18.2109375 13.27148438 C-17.44007813 12.70751953 -16.66921875 12.14355469 -15.875 11.5625 C-15.12734375 11.00240234 -14.3796875 10.44230469 -13.609375 9.86523438 C-9.11850414 6.51272886 -4.57041155 3.24293127 0 0 Z " fill="#0C0B16" transform="translate(368,210)"/>
<path d="M0 0 C0.66 0.33 1.32 0.66 2 1 C1.071875 1.763125 0.14375 2.52625 -0.8125 3.3125 C-2.98276101 5.11848552 -5.05568065 6.9476629 -7 9 C-7.99 8.67 -8.98 8.34 -10 8 C-6.66666667 5.33333333 -3.33333333 2.66666667 0 0 Z " fill="#211B16" transform="translate(368,210)"/>
<path d="M0 0 C0.33 0.66 0.66 1.32 1 2 C-0.25 4 -0.25 4 -2 6 C-3.32 6 -4.64 6 -6 6 C-6 5.01 -6 4.02 -6 3 C-4.02 2.01 -2.04 1.02 0 0 Z " fill="#F4DE46" transform="translate(387,281)"/>
<path d="M0 0 C2 3 2 3 2 6 C0.02 6 -1.96 6 -4 6 C-2.84826645 3.53199953 -1.95216435 1.95216435 0 0 Z " fill="#17131A" transform="translate(356,284)"/>
<path d="M0 0 C0.66 0.33 1.32 0.66 2 1 C1.75 3.375 1.75 3.375 1 6 C-1.0625 7.3125 -1.0625 7.3125 -3 8 C-1.125 2.25 -1.125 2.25 0 0 Z " fill="#161319" transform="translate(234,371)"/>
<path d="M0 0 C0 3 0 3 -1 6 C-2.32303717 6.3721042 -3.65737935 6.70630173 -5 7 C-5.33 7.66 -5.66 8.32 -6 9 C-6 6 -6 6 -4.6875 4.39453125 C-4.130625 3.87246094 -3.57375 3.35039062 -3 2.8125 C-2.443125 2.28269531 -1.88625 1.75289063 -1.3125 1.20703125 C-0.6628125 0.60955078 -0.6628125 0.60955078 0 0 Z " fill="#1C1919" transform="translate(338,349)"/>
</svg>
